%TF.GenerationSoftware,KiCad,Pcbnew,8.0.7*%
%TF.CreationDate,2025-02-07T09:21:37+09:00*%
%TF.ProjectId,coolpad002,636f6f6c-7061-4643-9030-322e6b696361,rev?*%
%TF.SameCoordinates,Original*%
%TF.FileFunction,Copper,L2,Bot*%
%TF.FilePolarity,Positive*%
%FSLAX46Y46*%
G04 Gerber Fmt 4.6, Leading zero omitted, Abs format (unit mm)*
G04 Created by KiCad (PCBNEW 8.0.7) date 2025-02-07 09:21:37*
%MOMM*%
%LPD*%
G01*
G04 APERTURE LIST*
G04 Aperture macros list*
%AMRoundRect*
0 Rectangle with rounded corners*
0 $1 Rounding radius*
0 $2 $3 $4 $5 $6 $7 $8 $9 X,Y pos of 4 corners*
0 Add a 4 corners polygon primitive as box body*
4,1,4,$2,$3,$4,$5,$6,$7,$8,$9,$2,$3,0*
0 Add four circle primitives for the rounded corners*
1,1,$1+$1,$2,$3*
1,1,$1+$1,$4,$5*
1,1,$1+$1,$6,$7*
1,1,$1+$1,$8,$9*
0 Add four rect primitives between the rounded corners*
20,1,$1+$1,$2,$3,$4,$5,0*
20,1,$1+$1,$4,$5,$6,$7,0*
20,1,$1+$1,$6,$7,$8,$9,0*
20,1,$1+$1,$8,$9,$2,$3,0*%
G04 Aperture macros list end*
%TA.AperFunction,SMDPad,CuDef*%
%ADD10R,2.000000X2.000000*%
%TD*%
%TA.AperFunction,SMDPad,CuDef*%
%ADD11R,1.900000X2.000000*%
%TD*%
%TA.AperFunction,ComponentPad*%
%ADD12O,1.300000X1.000000*%
%TD*%
%TA.AperFunction,ComponentPad*%
%ADD13C,1.524000*%
%TD*%
%TA.AperFunction,SMDPad,CuDef*%
%ADD14R,1.300000X0.950000*%
%TD*%
%TA.AperFunction,SMDPad,CuDef*%
%ADD15RoundRect,0.200000X-0.275000X0.200000X-0.275000X-0.200000X0.275000X-0.200000X0.275000X0.200000X0*%
%TD*%
%TA.AperFunction,SMDPad,CuDef*%
%ADD16RoundRect,0.200000X0.200000X0.275000X-0.200000X0.275000X-0.200000X-0.275000X0.200000X-0.275000X0*%
%TD*%
%TA.AperFunction,ComponentPad*%
%ADD17O,2.750000X1.800000*%
%TD*%
%TA.AperFunction,ComponentPad*%
%ADD18C,1.500000*%
%TD*%
%TA.AperFunction,SMDPad,CuDef*%
%ADD19RoundRect,0.200000X0.275000X-0.200000X0.275000X0.200000X-0.275000X0.200000X-0.275000X-0.200000X0*%
%TD*%
%TA.AperFunction,ComponentPad*%
%ADD20RoundRect,0.187500X-0.437500X-0.437500X0.437500X-0.437500X0.437500X0.437500X-0.437500X0.437500X0*%
%TD*%
%TA.AperFunction,ComponentPad*%
%ADD21O,1.250000X1.250000*%
%TD*%
%TA.AperFunction,SMDPad,CuDef*%
%ADD22RoundRect,0.150000X-0.150000X0.587500X-0.150000X-0.587500X0.150000X-0.587500X0.150000X0.587500X0*%
%TD*%
%TA.AperFunction,SMDPad,CuDef*%
%ADD23RoundRect,0.225000X0.225000X0.250000X-0.225000X0.250000X-0.225000X-0.250000X0.225000X-0.250000X0*%
%TD*%
%TA.AperFunction,ViaPad*%
%ADD24C,0.600000*%
%TD*%
%TA.AperFunction,Conductor*%
%ADD25C,0.200000*%
%TD*%
G04 APERTURE END LIST*
D10*
%TO.P,SW6,1,1*%
%TO.N,Col1*%
X138765000Y-68870000D03*
X139965000Y-62630000D03*
D11*
%TO.P,SW6,2,2*%
%TO.N,Net-(D5-A)*%
X149665000Y-71070000D03*
D10*
X152465000Y-60090000D03*
%TD*%
D12*
%TO.P,SW1,1,A*%
%TO.N,GND*%
X149750000Y-2554000D03*
%TO.P,SW1,2,B*%
%TO.N,Net-(BT1--)*%
X152250000Y-2554000D03*
%TO.P,SW1,3,C*%
%TO.N,unconnected-(SW1-C-Pad3)*%
X154750000Y-2554000D03*
%TD*%
D10*
%TO.P,SW2,1,1*%
%TO.N,Col0*%
X119655000Y-68880000D03*
X120855000Y-62640000D03*
D11*
%TO.P,SW2,2,2*%
%TO.N,Net-(D1-A)*%
X130555000Y-71080000D03*
D10*
X133355000Y-60100000D03*
%TD*%
D13*
%TO.P,BT1,1,+*%
%TO.N,Bat*%
X150530000Y-14870000D03*
%TO.P,BT1,2,-*%
%TO.N,Net-(BT1--)*%
X153070000Y-14870000D03*
%TD*%
D14*
%TO.P,D1,1,K*%
%TO.N,Row0*%
X130905000Y-54780000D03*
%TO.P,D1,2,A*%
%TO.N,Net-(D1-A)*%
X134455000Y-54780000D03*
%TD*%
%TO.P,D5,1,K*%
%TO.N,Row0*%
X138400000Y-54810000D03*
%TO.P,D5,2,A*%
%TO.N,Net-(D5-A)*%
X141950000Y-54810000D03*
%TD*%
D15*
%TO.P,C2,1*%
%TO.N,+1V9*%
X131550000Y-45450000D03*
%TO.P,C2,2*%
%TO.N,GND*%
X131550000Y-47100000D03*
%TD*%
D16*
%TO.P,C7,1*%
%TO.N,Net-(U2-VCP)*%
X152215000Y-31750000D03*
%TO.P,C7,2*%
%TO.N,GND*%
X150565000Y-31750000D03*
%TD*%
D15*
%TO.P,C5,1*%
%TO.N,Net-(U2-CN)*%
X143940000Y-45385000D03*
%TO.P,C5,2*%
%TO.N,Net-(U2-CP)*%
X143940000Y-47035000D03*
%TD*%
D17*
%TO.P,U3,1,P0.02_A0_D0*%
%TO.N,MOTION*%
X145610000Y-2774000D03*
%TO.P,U3,2,P0.03_A1_D1*%
%TO.N,Row0*%
X145610000Y-5314000D03*
%TO.P,U3,3,P0.28_A2_D2*%
%TO.N,Row1*%
X145610000Y-7854000D03*
%TO.P,U3,4,P0.29_A3_D3*%
%TO.N,Row2*%
X145610000Y-10394000D03*
%TO.P,U3,5,P0.04_A4_D4_SDA*%
%TO.N,SDIO*%
X145610000Y-12934000D03*
%TO.P,U3,6,P0.05_A5_D5_SCL*%
%TO.N,SCLK*%
X145610000Y-15474000D03*
%TO.P,U3,7,P1.11_D6_TX*%
%TO.N,Row3*%
X145610000Y-18014000D03*
%TO.P,U3,8,P1.12_D7_RX*%
%TO.N,Col3*%
X129370000Y-18014000D03*
%TO.P,U3,9,P1.13_D8_SCK*%
%TO.N,Col2*%
X129370000Y-15474000D03*
%TO.P,U3,10,P1.14_D9_MISO*%
%TO.N,Col1*%
X129370000Y-12934000D03*
%TO.P,U3,11,P1.15_D10_MOSI*%
%TO.N,Col0*%
X129370000Y-10394000D03*
%TO.P,U3,12,3V3*%
%TO.N,VCC3.3*%
X129370000Y-7854000D03*
%TO.P,U3,13,GND*%
%TO.N,GND*%
X129370000Y-5314000D03*
%TO.P,U3,14,5V*%
%TO.N,VCC*%
X129370000Y-2774000D03*
D18*
%TO.P,U3,15,NFC1_0.09*%
%TO.N,NCS*%
X133654600Y-19706000D03*
%TO.P,U3,16,NFC2_0.10*%
%TO.N,Col4*%
X131775000Y-19706000D03*
%TO.P,U3,20,BATT+*%
%TO.N,Bat*%
X141935000Y-10077000D03*
%TO.P,U3,21,BATT-*%
%TO.N,GND*%
X141935000Y-8172000D03*
%TD*%
D19*
%TO.P,C1,1*%
%TO.N,GND*%
X134690000Y-47060000D03*
%TO.P,C1,2*%
%TO.N,VCC3.3*%
X134690000Y-45410000D03*
%TD*%
D20*
%TO.P,U2,1,+VCSEL*%
%TO.N,Net-(U2-+VCSEL)*%
X131352893Y-29057107D03*
D21*
%TO.P,U2,2,SDIO*%
%TO.N,SDIO*%
X133132893Y-29057107D03*
%TO.P,U2,3,SCLK*%
%TO.N,SCLK*%
X134912893Y-29057107D03*
%TO.P,U2,4,NC*%
%TO.N,unconnected-(U2-NC-Pad4)*%
X136692893Y-29057107D03*
%TO.P,U2,5,NCS*%
%TO.N,NCS*%
X138472893Y-29057107D03*
%TO.P,U2,6,VDDIO*%
%TO.N,VCC3.3*%
X140252893Y-29057107D03*
%TO.P,U2,7,NRESET*%
%TO.N,Net-(U2-NRESET)*%
X142032893Y-29057107D03*
%TO.P,U2,8,MOTION*%
%TO.N,MOTION*%
X143812893Y-29057107D03*
%TO.P,U2,9,VCP*%
%TO.N,Net-(U2-VCP)*%
X144702893Y-39757107D03*
%TO.P,U2,10,PASS_T*%
%TO.N,Net-(U2-+VCSEL)*%
X142922893Y-39757107D03*
%TO.P,U2,11,GND*%
%TO.N,GND*%
X141142893Y-39757107D03*
%TO.P,U2,12,CP*%
%TO.N,Net-(U2-CP)*%
X139362893Y-39757107D03*
%TO.P,U2,13,CN*%
%TO.N,Net-(U2-CN)*%
X137582893Y-39757107D03*
%TO.P,U2,14,VDD*%
%TO.N,+1V9*%
X135802893Y-39757107D03*
%TO.P,U2,15,XYLASER*%
%TO.N,Net-(U2--VCSEL)*%
X134022893Y-39757107D03*
%TO.P,U2,16,-VCSEL*%
X132242893Y-39757107D03*
%TD*%
D16*
%TO.P,C9,1*%
%TO.N,+1V9*%
X152215000Y-37750000D03*
%TO.P,C9,2*%
%TO.N,GND*%
X150565000Y-37750000D03*
%TD*%
D22*
%TO.P,U1,1,GND*%
%TO.N,GND*%
X121620000Y-37525000D03*
%TO.P,U1,2,VO*%
%TO.N,+1V9*%
X123520000Y-37525000D03*
%TO.P,U1,3,VI*%
%TO.N,VCC3.3*%
X122570000Y-39400000D03*
%TD*%
D16*
%TO.P,C8,1*%
%TO.N,+1V9*%
X152215000Y-34750000D03*
%TO.P,C8,2*%
%TO.N,GND*%
X150565000Y-34750000D03*
%TD*%
%TO.P,C6,1*%
%TO.N,Net-(U2-VCP)*%
X152215000Y-28750000D03*
%TO.P,C6,2*%
%TO.N,GND*%
X150565000Y-28750000D03*
%TD*%
D15*
%TO.P,C4,1*%
%TO.N,Net-(U2-+VCSEL)*%
X140880000Y-45495000D03*
%TO.P,C4,2*%
%TO.N,GND*%
X140880000Y-47145000D03*
%TD*%
%TO.P,C3,1*%
%TO.N,VCC3.3*%
X137820000Y-45415000D03*
%TO.P,C3,2*%
%TO.N,GND*%
X137820000Y-47065000D03*
%TD*%
D23*
%TO.P,R1,1*%
%TO.N,Net-(U2-NRESET)*%
X152165000Y-40750000D03*
%TO.P,R1,2*%
%TO.N,VCC3.3*%
X150615000Y-40750000D03*
%TD*%
D24*
%TO.N,GND*%
X118830000Y-5250000D03*
%TO.N,+1V9*%
X152210000Y-39200000D03*
X135715000Y-41285000D03*
%TO.N,Net-(U2-+VCSEL)*%
X142300000Y-48400000D03*
X120300000Y-29160000D03*
X142050000Y-45540398D03*
%TO.N,Net-(U2-CP)*%
X139460000Y-42010000D03*
X142650000Y-42120000D03*
%TO.N,Net-(U2-CN)*%
X137530000Y-42870000D03*
X143910000Y-42720000D03*
%TO.N,Net-(U2-VCP)*%
X152260000Y-33060000D03*
X146152093Y-33040000D03*
%TO.N,Net-(U2-NRESET)*%
X147600000Y-28280000D03*
%TO.N,SCLK*%
X134940000Y-15710000D03*
%TO.N,SDIO*%
X136640000Y-27080000D03*
X136640000Y-12950000D03*
%TO.N,NCS*%
X138510000Y-19870000D03*
%TO.N,Col0*%
X118230000Y-9000000D03*
%TO.N,VCC3.3*%
X146470000Y-27532107D03*
X149020000Y-40790000D03*
X138570000Y-7860000D03*
X137870000Y-43680000D03*
X124580000Y-41540000D03*
X134640000Y-43670000D03*
%TO.N,Col1*%
X119020000Y-29110000D03*
X139800000Y-57540000D03*
X120270000Y-26910000D03*
X119030000Y-57510000D03*
%TO.N,Bat*%
X141890000Y-14280000D03*
%TD*%
D25*
%TO.N,GND*%
X118830000Y-5250000D02*
X118830000Y-26841471D01*
X150565000Y-34750000D02*
X150565000Y-31750000D01*
X121620000Y-29631471D02*
X121620000Y-37525000D01*
X152915000Y-42720996D02*
X147885996Y-47750000D01*
X140880000Y-47145000D02*
X140105000Y-46370000D01*
X150565000Y-38584314D02*
X151955686Y-39975000D01*
X147885996Y-47750000D02*
X141485000Y-47750000D01*
X131550000Y-47100000D02*
X140835000Y-47100000D01*
X152613696Y-39975000D02*
X152915000Y-40276304D01*
X141485000Y-47750000D02*
X140880000Y-47145000D01*
X121620000Y-42315996D02*
X126424004Y-47120000D01*
X140105000Y-46370000D02*
X140105000Y-40795000D01*
X150565000Y-37750000D02*
X150565000Y-38584314D01*
X150565000Y-31750000D02*
X150565000Y-28750000D01*
X152915000Y-40276304D02*
X152915000Y-42720996D01*
X131530000Y-47120000D02*
X131550000Y-47100000D01*
X126424004Y-47120000D02*
X131530000Y-47120000D01*
X140835000Y-47100000D02*
X140880000Y-47145000D01*
X121620000Y-37525000D02*
X121620000Y-42315996D01*
X151955686Y-39975000D02*
X152613696Y-39975000D01*
X118830000Y-26841471D02*
X121620000Y-29631471D01*
X150565000Y-37750000D02*
X150565000Y-34750000D01*
X140105000Y-40795000D02*
X141142893Y-39757107D01*
%TO.N,+1V9*%
X135802893Y-41197107D02*
X135715000Y-41285000D01*
X152215000Y-39195000D02*
X152210000Y-39200000D01*
X131550000Y-44874004D02*
X131550000Y-45450000D01*
X152215000Y-37750000D02*
X152215000Y-39195000D01*
X124200996Y-37525000D02*
X131550000Y-44874004D01*
X152215000Y-34750000D02*
X152215000Y-37750000D01*
X135715000Y-41285000D02*
X131550000Y-45450000D01*
X123520000Y-37525000D02*
X124200996Y-37525000D01*
X135802893Y-39757107D02*
X135802893Y-41197107D01*
%TO.N,Net-(U2-+VCSEL)*%
X120300000Y-29160000D02*
X120300000Y-41561682D01*
X142050000Y-45540398D02*
X140925398Y-45540398D01*
X140880000Y-41800000D02*
X142922893Y-39757107D01*
X127138318Y-48400000D02*
X142300000Y-48400000D01*
X140925398Y-45540398D02*
X140880000Y-45495000D01*
X120300000Y-41561682D02*
X127138318Y-48400000D01*
X140880000Y-45495000D02*
X140880000Y-41800000D01*
%TO.N,Net-(U2-CP)*%
X142650000Y-45745000D02*
X143940000Y-47035000D01*
X139362893Y-39757107D02*
X139362893Y-41912893D01*
X139362893Y-41912893D02*
X139460000Y-42010000D01*
X142650000Y-42120000D02*
X142650000Y-45745000D01*
%TO.N,Net-(U2-CN)*%
X143940000Y-42750000D02*
X143910000Y-42720000D01*
X143940000Y-45385000D02*
X143940000Y-42750000D01*
X137582893Y-42817107D02*
X137582893Y-39757107D01*
X137530000Y-42870000D02*
X137582893Y-42817107D01*
%TO.N,Net-(U2-VCP)*%
X152215000Y-28750000D02*
X152215000Y-31750000D01*
X152215000Y-31750000D02*
X152215000Y-33015000D01*
X146152093Y-39191790D02*
X145586776Y-39757107D01*
X145586776Y-39757107D02*
X144702893Y-39757107D01*
X146152093Y-33040000D02*
X146152093Y-39191790D01*
X152215000Y-33015000D02*
X152260000Y-33060000D01*
%TO.N,Net-(U2-NRESET)*%
X147690000Y-37990000D02*
X148760000Y-39060000D01*
X147600000Y-28280000D02*
X147690000Y-28370000D01*
X150475000Y-39060000D02*
X152165000Y-40750000D01*
X147690000Y-28370000D02*
X147690000Y-37990000D01*
X148760000Y-39060000D02*
X150475000Y-39060000D01*
%TO.N,MOTION*%
X143812893Y-29057107D02*
X143812893Y-4071107D01*
X143812893Y-4071107D02*
X145110000Y-2774000D01*
%TO.N,SCLK*%
X134912893Y-29057107D02*
X134912893Y-15737107D01*
X134912893Y-15737107D02*
X134940000Y-15710000D01*
%TO.N,SDIO*%
X136640000Y-27080000D02*
X136640000Y-12950000D01*
%TO.N,NCS*%
X138472893Y-29057107D02*
X138472893Y-19907107D01*
X138472893Y-19907107D02*
X138510000Y-19870000D01*
%TO.N,Net-(D1-A)*%
X134455000Y-59000000D02*
X133355000Y-60100000D01*
X130555000Y-62900000D02*
X130555000Y-71080000D01*
X134455000Y-54780000D02*
X134455000Y-59000000D01*
X133355000Y-60100000D02*
X130555000Y-62900000D01*
%TO.N,Col0*%
X120855000Y-67680000D02*
X119655000Y-68880000D01*
X120855000Y-62640000D02*
X120855000Y-67680000D01*
X120855000Y-62640000D02*
X118230000Y-60015000D01*
X118230000Y-60015000D02*
X118230000Y-9000000D01*
%TO.N,VCC3.3*%
X140252893Y-29057107D02*
X140252893Y-12342893D01*
X146470000Y-32130000D02*
X147290000Y-32950000D01*
X149060000Y-40750000D02*
X149020000Y-40790000D01*
X140252893Y-12342893D02*
X138570000Y-10660000D01*
X147290000Y-39060000D02*
X149020000Y-40790000D01*
X150615000Y-40750000D02*
X149060000Y-40750000D01*
X124580000Y-41410000D02*
X124580000Y-41540000D01*
X122570000Y-39400000D02*
X124580000Y-41410000D01*
X146470000Y-27532107D02*
X146470000Y-32130000D01*
X137870000Y-43680000D02*
X137870000Y-45365000D01*
X147290000Y-32950000D02*
X147290000Y-39060000D01*
X137870000Y-45365000D02*
X137820000Y-45415000D01*
X134690000Y-45410000D02*
X137815000Y-45410000D01*
X134640000Y-43670000D02*
X134640000Y-45360000D01*
X134640000Y-45360000D02*
X134690000Y-45410000D01*
X137815000Y-45410000D02*
X137820000Y-45415000D01*
X138570000Y-10660000D02*
X138570000Y-7860000D01*
%TO.N,Col1*%
X139965000Y-58075000D02*
X139965000Y-62630000D01*
X129737944Y-12934000D02*
X120270000Y-22401944D01*
X139800000Y-57910000D02*
X139965000Y-58075000D01*
X139800000Y-57540000D02*
X139800000Y-57910000D01*
X120270000Y-22401944D02*
X120270000Y-26910000D01*
X139965000Y-62630000D02*
X139965000Y-67670000D01*
X119020000Y-29110000D02*
X119020000Y-57500000D01*
X129870000Y-12934000D02*
X129737944Y-12934000D01*
X139965000Y-67670000D02*
X138765000Y-68870000D01*
X119020000Y-57500000D02*
X119030000Y-57510000D01*
%TO.N,Net-(D5-A)*%
X147185000Y-54810000D02*
X152465000Y-60090000D01*
X152465000Y-62610559D02*
X149665000Y-65410559D01*
X141950000Y-54810000D02*
X147185000Y-54810000D01*
X152465000Y-60090000D02*
X152465000Y-62610559D01*
X149665000Y-65410559D02*
X149665000Y-71070000D01*
%TO.N,Row0*%
X148680000Y-8751944D02*
X145242056Y-5314000D01*
X130905000Y-54780000D02*
X131680000Y-54005000D01*
X152008000Y-14749387D02*
X151013738Y-13755125D01*
X150737245Y-13579658D02*
X150484923Y-13370919D01*
X136685000Y-49000000D02*
X147201682Y-49000000D01*
X150484923Y-13370919D02*
X148680000Y-11565996D01*
X153630000Y-42571682D02*
X153630000Y-16931895D01*
X148680000Y-11565996D02*
X148680000Y-8751944D01*
X151013738Y-13755125D02*
X150737245Y-13579658D01*
X131680000Y-54005000D02*
X137595000Y-54005000D01*
X137595000Y-54005000D02*
X138400000Y-54810000D01*
X152008000Y-15309895D02*
X152008000Y-14749387D01*
X147201682Y-49000000D02*
X153630000Y-42571682D01*
X130905000Y-54780000D02*
X136685000Y-49000000D01*
X153630000Y-16931895D02*
X152008000Y-15309895D01*
X145242056Y-5314000D02*
X145110000Y-5314000D01*
%TO.N,Net-(BT1--)*%
X153070000Y-14870000D02*
X154875670Y-13064330D01*
X154875670Y-13064330D02*
X154875670Y-5179670D01*
X154875670Y-5179670D02*
X152250000Y-2554000D01*
%TO.N,Bat*%
X141890000Y-14280000D02*
X141890000Y-13830000D01*
X141935000Y-13785000D02*
X141935000Y-10077000D01*
X141890000Y-13830000D02*
X141935000Y-13785000D01*
%TO.N,Net-(U2--VCSEL)*%
X132242893Y-39757107D02*
X134022893Y-39757107D01*
%TD*%
M02*
