%TF.GenerationSoftware,KiCad,Pcbnew,8.0.7*%
%TF.CreationDate,2025-02-07T09:21:37+09:00*%
%TF.ProjectId,coolpad002,636f6f6c-7061-4643-9030-322e6b696361,rev?*%
%TF.SameCoordinates,Original*%
%TF.FileFunction,Copper,L1,Top*%
%TF.FilePolarity,Positive*%
%FSLAX46Y46*%
G04 Gerber Fmt 4.6, Leading zero omitted, Abs format (unit mm)*
G04 Created by KiCad (PCBNEW 8.0.7) date 2025-02-07 09:21:37*
%MOMM*%
%LPD*%
G01*
G04 APERTURE LIST*
G04 Aperture macros list*
%AMRoundRect*
0 Rectangle with rounded corners*
0 $1 Rounding radius*
0 $2 $3 $4 $5 $6 $7 $8 $9 X,Y pos of 4 corners*
0 Add a 4 corners polygon primitive as box body*
4,1,4,$2,$3,$4,$5,$6,$7,$8,$9,$2,$3,0*
0 Add four circle primitives for the rounded corners*
1,1,$1+$1,$2,$3*
1,1,$1+$1,$4,$5*
1,1,$1+$1,$6,$7*
1,1,$1+$1,$8,$9*
0 Add four rect primitives between the rounded corners*
20,1,$1+$1,$2,$3,$4,$5,0*
20,1,$1+$1,$4,$5,$6,$7,0*
20,1,$1+$1,$6,$7,$8,$9,0*
20,1,$1+$1,$8,$9,$2,$3,0*%
G04 Aperture macros list end*
%TA.AperFunction,ComponentPad*%
%ADD10O,1.300000X1.000000*%
%TD*%
%TA.AperFunction,ComponentPad*%
%ADD11C,1.524000*%
%TD*%
%TA.AperFunction,ComponentPad*%
%ADD12O,2.750000X1.800000*%
%TD*%
%TA.AperFunction,ComponentPad*%
%ADD13C,1.500000*%
%TD*%
%TA.AperFunction,ComponentPad*%
%ADD14RoundRect,0.187500X-0.437500X-0.437500X0.437500X-0.437500X0.437500X0.437500X-0.437500X0.437500X0*%
%TD*%
%TA.AperFunction,ComponentPad*%
%ADD15O,1.250000X1.250000*%
%TD*%
%TA.AperFunction,ViaPad*%
%ADD16C,0.600000*%
%TD*%
%TA.AperFunction,Conductor*%
%ADD17C,0.200000*%
%TD*%
G04 APERTURE END LIST*
D10*
%TO.P,SW1,1,A*%
%TO.N,GND*%
X149750000Y-2554000D03*
%TO.P,SW1,2,B*%
%TO.N,Net-(BT1--)*%
X152250000Y-2554000D03*
%TO.P,SW1,3,C*%
%TO.N,unconnected-(SW1-C-Pad3)*%
X154750000Y-2554000D03*
%TD*%
D11*
%TO.P,BT1,1,+*%
%TO.N,Bat*%
X150530000Y-14870000D03*
%TO.P,BT1,2,-*%
%TO.N,Net-(BT1--)*%
X153070000Y-14870000D03*
%TD*%
D12*
%TO.P,U3,1,P0.02_A0_D0*%
%TO.N,MOTION*%
X145610000Y-2774000D03*
%TO.P,U3,2,P0.03_A1_D1*%
%TO.N,Row0*%
X145610000Y-5314000D03*
%TO.P,U3,3,P0.28_A2_D2*%
%TO.N,Row1*%
X145610000Y-7854000D03*
%TO.P,U3,4,P0.29_A3_D3*%
%TO.N,Row2*%
X145610000Y-10394000D03*
%TO.P,U3,5,P0.04_A4_D4_SDA*%
%TO.N,SDIO*%
X145610000Y-12934000D03*
%TO.P,U3,6,P0.05_A5_D5_SCL*%
%TO.N,SCLK*%
X145610000Y-15474000D03*
%TO.P,U3,7,P1.11_D6_TX*%
%TO.N,Row3*%
X145610000Y-18014000D03*
%TO.P,U3,8,P1.12_D7_RX*%
%TO.N,Col3*%
X129370000Y-18014000D03*
%TO.P,U3,9,P1.13_D8_SCK*%
%TO.N,Col2*%
X129370000Y-15474000D03*
%TO.P,U3,10,P1.14_D9_MISO*%
%TO.N,Col1*%
X129370000Y-12934000D03*
%TO.P,U3,11,P1.15_D10_MOSI*%
%TO.N,Col0*%
X129370000Y-10394000D03*
%TO.P,U3,12,3V3*%
%TO.N,VCC3.3*%
X129370000Y-7854000D03*
%TO.P,U3,13,GND*%
%TO.N,GND*%
X129370000Y-5314000D03*
%TO.P,U3,14,5V*%
%TO.N,VCC*%
X129370000Y-2774000D03*
D13*
%TO.P,U3,15,NFC1_0.09*%
%TO.N,NCS*%
X133654600Y-19706000D03*
%TO.P,U3,16,NFC2_0.10*%
%TO.N,Col4*%
X131775000Y-19706000D03*
%TO.P,U3,20,BATT+*%
%TO.N,Bat*%
X141935000Y-10077000D03*
%TO.P,U3,21,BATT-*%
%TO.N,GND*%
X141935000Y-8172000D03*
%TD*%
D14*
%TO.P,U2,1,+VCSEL*%
%TO.N,Net-(U2-+VCSEL)*%
X131352893Y-29057107D03*
D15*
%TO.P,U2,2,SDIO*%
%TO.N,SDIO*%
X133132893Y-29057107D03*
%TO.P,U2,3,SCLK*%
%TO.N,SCLK*%
X134912893Y-29057107D03*
%TO.P,U2,4,NC*%
%TO.N,unconnected-(U2-NC-Pad4)*%
X136692893Y-29057107D03*
%TO.P,U2,5,NCS*%
%TO.N,NCS*%
X138472893Y-29057107D03*
%TO.P,U2,6,VDDIO*%
%TO.N,VCC3.3*%
X140252893Y-29057107D03*
%TO.P,U2,7,NRESET*%
%TO.N,Net-(U2-NRESET)*%
X142032893Y-29057107D03*
%TO.P,U2,8,MOTION*%
%TO.N,MOTION*%
X143812893Y-29057107D03*
%TO.P,U2,9,VCP*%
%TO.N,Net-(U2-VCP)*%
X144702893Y-39757107D03*
%TO.P,U2,10,PASS_T*%
%TO.N,Net-(U2-+VCSEL)*%
X142922893Y-39757107D03*
%TO.P,U2,11,GND*%
%TO.N,GND*%
X141142893Y-39757107D03*
%TO.P,U2,12,CP*%
%TO.N,Net-(U2-CP)*%
X139362893Y-39757107D03*
%TO.P,U2,13,CN*%
%TO.N,Net-(U2-CN)*%
X137582893Y-39757107D03*
%TO.P,U2,14,VDD*%
%TO.N,+1V9*%
X135802893Y-39757107D03*
%TO.P,U2,15,XYLASER*%
%TO.N,Net-(U2--VCSEL)*%
X134022893Y-39757107D03*
%TO.P,U2,16,-VCSEL*%
X132242893Y-39757107D03*
%TD*%
D16*
%TO.N,GND*%
X118830000Y-5250000D03*
%TO.N,+1V9*%
X152210000Y-39200000D03*
X135715000Y-41285000D03*
%TO.N,Net-(U2-+VCSEL)*%
X142300000Y-48400000D03*
X120300000Y-29160000D03*
X142050000Y-45540398D03*
%TO.N,Net-(U2-CP)*%
X139460000Y-42010000D03*
X142650000Y-42120000D03*
%TO.N,Net-(U2-CN)*%
X137530000Y-42870000D03*
X143910000Y-42720000D03*
%TO.N,Net-(U2-VCP)*%
X152260000Y-33060000D03*
X146152093Y-33040000D03*
%TO.N,Net-(U2-NRESET)*%
X147600000Y-28280000D03*
%TO.N,SCLK*%
X134940000Y-15710000D03*
%TO.N,SDIO*%
X136640000Y-27080000D03*
X136640000Y-12950000D03*
%TO.N,NCS*%
X138510000Y-19870000D03*
%TO.N,Col0*%
X118230000Y-9000000D03*
%TO.N,VCC3.3*%
X146470000Y-27532107D03*
X149020000Y-40790000D03*
X138570000Y-7860000D03*
X137870000Y-43680000D03*
X124580000Y-41540000D03*
X134640000Y-43670000D03*
%TO.N,Col1*%
X119020000Y-29110000D03*
X139800000Y-57540000D03*
X120270000Y-26910000D03*
X119030000Y-57510000D03*
%TO.N,Bat*%
X141890000Y-14280000D03*
%TD*%
D17*
%TO.N,GND*%
X138760000Y-5314000D02*
X129870000Y-5314000D01*
X138760000Y-5314000D02*
X143437944Y-5314000D01*
X143970972Y-4780972D02*
X144777944Y-3974000D01*
X141935000Y-6816944D02*
X143970972Y-4780972D01*
X148330000Y-3974000D02*
X149750000Y-2554000D01*
X143437944Y-5314000D02*
X143970972Y-4780972D01*
X141935000Y-8172000D02*
X141935000Y-6816944D01*
X144777944Y-3974000D02*
X148330000Y-3974000D01*
X118894000Y-5314000D02*
X118830000Y-5250000D01*
X129870000Y-5314000D02*
X118894000Y-5314000D01*
%TO.N,+1V9*%
X147760000Y-39200000D02*
X152210000Y-39200000D01*
X145675000Y-41285000D02*
X147760000Y-39200000D01*
X135715000Y-41285000D02*
X145675000Y-41285000D01*
%TO.N,Net-(U2-+VCSEL)*%
X142300000Y-48400000D02*
X142300000Y-45790398D01*
X142300000Y-45790398D02*
X142050000Y-45540398D01*
X131352893Y-29057107D02*
X120402893Y-29057107D01*
X120402893Y-29057107D02*
X120300000Y-29160000D01*
%TO.N,Net-(U2-CP)*%
X142540000Y-42010000D02*
X142650000Y-42120000D01*
X139460000Y-42010000D02*
X142540000Y-42010000D01*
%TO.N,Net-(U2-CN)*%
X137680000Y-42720000D02*
X137530000Y-42870000D01*
X143910000Y-42720000D02*
X137680000Y-42720000D01*
%TO.N,Net-(U2-VCP)*%
X152260000Y-33060000D02*
X146172093Y-33060000D01*
X146172093Y-33060000D02*
X146152093Y-33040000D01*
%TO.N,Net-(U2-NRESET)*%
X142957893Y-28132107D02*
X142032893Y-29057107D01*
X147600000Y-28280000D02*
X147452107Y-28132107D01*
X147452107Y-28132107D02*
X142957893Y-28132107D01*
%TO.N,SCLK*%
X144874000Y-15710000D02*
X145110000Y-15474000D01*
X134940000Y-15710000D02*
X144874000Y-15710000D01*
%TO.N,SDIO*%
X136640000Y-12950000D02*
X145094000Y-12950000D01*
X145094000Y-12950000D02*
X145110000Y-12934000D01*
X135110000Y-27080000D02*
X136640000Y-27080000D01*
X133132893Y-29057107D02*
X135110000Y-27080000D01*
%TO.N,Col0*%
X129870000Y-10394000D02*
X128764000Y-10394000D01*
X127232321Y-8862321D02*
X118367679Y-8862321D01*
X128764000Y-10394000D02*
X127232321Y-8862321D01*
X118367679Y-8862321D02*
X118230000Y-9000000D01*
%TO.N,VCC3.3*%
X149020000Y-40790000D02*
X146980000Y-40790000D01*
X129876000Y-7860000D02*
X129870000Y-7854000D01*
X124580000Y-41540000D02*
X132510000Y-41540000D01*
X141777893Y-27532107D02*
X146470000Y-27532107D01*
X138570000Y-7860000D02*
X129876000Y-7860000D01*
X143870000Y-43680000D02*
X137870000Y-43680000D01*
X146980000Y-40790000D02*
X146760000Y-40790000D01*
X146760000Y-40790000D02*
X143870000Y-43680000D01*
X132510000Y-41540000D02*
X134640000Y-43670000D01*
X140252893Y-29057107D02*
X141777893Y-27532107D01*
%TO.N,Col1*%
X119030000Y-57510000D02*
X139770000Y-57510000D01*
X120150000Y-27030000D02*
X120150000Y-27980000D01*
X120150000Y-27980000D02*
X119020000Y-29110000D01*
X139770000Y-57510000D02*
X139800000Y-57540000D01*
X120270000Y-26910000D02*
X120150000Y-27030000D01*
%TO.N,Bat*%
X141896000Y-14274000D02*
X141890000Y-14280000D01*
X149934000Y-14274000D02*
X141896000Y-14274000D01*
X150530000Y-14870000D02*
X149934000Y-14274000D01*
%TO.N,NCS*%
X138346000Y-19706000D02*
X133654600Y-19706000D01*
X138510000Y-19870000D02*
X138346000Y-19706000D01*
%TD*%
M02*
