%TF.GenerationSoftware,KiCad,Pcbnew,8.0.7*%
%TF.CreationDate,2025-02-05T17:19:30+09:00*%
%TF.ProjectId,coolpad002,636f6f6c-7061-4643-9030-322e6b696361,rev?*%
%TF.SameCoordinates,Original*%
%TF.FileFunction,Soldermask,Top*%
%TF.FilePolarity,Negative*%
%FSLAX46Y46*%
G04 Gerber Fmt 4.6, Leading zero omitted, Abs format (unit mm)*
G04 Created by KiCad (PCBNEW 8.0.7) date 2025-02-05 17:19:30*
%MOMM*%
%LPD*%
G01*
G04 APERTURE LIST*
G04 Aperture macros list*
%AMRoundRect*
0 Rectangle with rounded corners*
0 $1 Rounding radius*
0 $2 $3 $4 $5 $6 $7 $8 $9 X,Y pos of 4 corners*
0 Add a 4 corners polygon primitive as box body*
4,1,4,$2,$3,$4,$5,$6,$7,$8,$9,$2,$3,0*
0 Add four circle primitives for the rounded corners*
1,1,$1+$1,$2,$3*
1,1,$1+$1,$4,$5*
1,1,$1+$1,$6,$7*
1,1,$1+$1,$8,$9*
0 Add four rect primitives between the rounded corners*
20,1,$1+$1,$2,$3,$4,$5,0*
20,1,$1+$1,$4,$5,$6,$7,0*
20,1,$1+$1,$6,$7,$8,$9,0*
20,1,$1+$1,$8,$9,$2,$3,0*%
G04 Aperture macros list end*
%ADD10C,1.900000*%
%ADD11C,1.700000*%
%ADD12C,3.000000*%
%ADD13C,4.100000*%
%ADD14O,1.300000X1.000000*%
%ADD15C,1.524000*%
%ADD16O,2.750000X1.800000*%
%ADD17C,1.500000*%
%ADD18RoundRect,0.187500X-0.437500X-0.437500X0.437500X-0.437500X0.437500X0.437500X-0.437500X0.437500X0*%
%ADD19O,1.250000X1.250000*%
G04 APERTURE END LIST*
D10*
%TO.C,SW6*%
X141365000Y-65170000D03*
D11*
X141785000Y-65170000D03*
D12*
X141865000Y-68870000D03*
D11*
X142365000Y-65170000D03*
D12*
X143055000Y-62630000D03*
D13*
X146865000Y-65170000D03*
D12*
X146865000Y-71070000D03*
X149405000Y-60090000D03*
D11*
X151365000Y-65170000D03*
X151945000Y-65170000D03*
D10*
X152365000Y-65170000D03*
%TD*%
D14*
%TO.C,SW1*%
X149750000Y-2554000D03*
X152250000Y-2554000D03*
X154750000Y-2554000D03*
%TD*%
D10*
%TO.C,SW2*%
X122255000Y-65180000D03*
D11*
X122675000Y-65180000D03*
D12*
X122755000Y-68880000D03*
D11*
X123255000Y-65180000D03*
D12*
X123945000Y-62640000D03*
D13*
X127755000Y-65180000D03*
D12*
X127755000Y-71080000D03*
X130295000Y-60100000D03*
D11*
X132255000Y-65180000D03*
X132835000Y-65180000D03*
D10*
X133255000Y-65180000D03*
%TD*%
D15*
%TO.C,BT1*%
X150530000Y-14870000D03*
X153070000Y-14870000D03*
%TD*%
D16*
%TO.C,U3*%
X145610000Y-2774000D03*
X145610000Y-5314000D03*
X145610000Y-7854000D03*
X145610000Y-10394000D03*
X145610000Y-12934000D03*
X145610000Y-15474000D03*
X145610000Y-18014000D03*
X129370000Y-18014000D03*
X129370000Y-15474000D03*
X129370000Y-12934000D03*
X129370000Y-10394000D03*
X129370000Y-7854000D03*
X129370000Y-5314000D03*
X129370000Y-2774000D03*
D17*
X133654600Y-19706000D03*
X131775000Y-19706000D03*
X141935000Y-10077000D03*
X141935000Y-8172000D03*
%TD*%
D18*
%TO.C,U2*%
X131352893Y-29057107D03*
D19*
X133132893Y-29057107D03*
X134912893Y-29057107D03*
X136692893Y-29057107D03*
X138472893Y-29057107D03*
X140252893Y-29057107D03*
X142032893Y-29057107D03*
X143812893Y-29057107D03*
X144702893Y-39757107D03*
X142922893Y-39757107D03*
X141142893Y-39757107D03*
X139362893Y-39757107D03*
X137582893Y-39757107D03*
X135802893Y-39757107D03*
X134022893Y-39757107D03*
X132242893Y-39757107D03*
%TD*%
M02*
