%TF.GenerationSoftware,KiCad,Pcbnew,8.0.7*%
%TF.CreationDate,2025-02-05T17:19:30+09:00*%
%TF.ProjectId,coolpad002,636f6f6c-7061-4643-9030-322e6b696361,rev?*%
%TF.SameCoordinates,Original*%
%TF.FileFunction,Legend,Bot*%
%TF.FilePolarity,Positive*%
%FSLAX46Y46*%
G04 Gerber Fmt 4.6, Leading zero omitted, Abs format (unit mm)*
G04 Created by KiCad (PCBNEW 8.0.7) date 2025-02-05 17:19:30*
%MOMM*%
%LPD*%
G01*
G04 APERTURE LIST*
%ADD10C,0.100000*%
%ADD11C,0.150000*%
%ADD12C,0.125000*%
%ADD13C,0.062500*%
%ADD14C,0.120000*%
G04 APERTURE END LIST*
D10*
X154262306Y-16020038D02*
X154357544Y-15972419D01*
X154357544Y-15972419D02*
X154500401Y-15972419D01*
X154500401Y-15972419D02*
X154643258Y-16020038D01*
X154643258Y-16020038D02*
X154738496Y-16115276D01*
X154738496Y-16115276D02*
X154786115Y-16210514D01*
X154786115Y-16210514D02*
X154833734Y-16400990D01*
X154833734Y-16400990D02*
X154833734Y-16543847D01*
X154833734Y-16543847D02*
X154786115Y-16734323D01*
X154786115Y-16734323D02*
X154738496Y-16829561D01*
X154738496Y-16829561D02*
X154643258Y-16924800D01*
X154643258Y-16924800D02*
X154500401Y-16972419D01*
X154500401Y-16972419D02*
X154405163Y-16972419D01*
X154405163Y-16972419D02*
X154262306Y-16924800D01*
X154262306Y-16924800D02*
X154214687Y-16877180D01*
X154214687Y-16877180D02*
X154214687Y-16543847D01*
X154214687Y-16543847D02*
X154405163Y-16543847D01*
X153786115Y-16972419D02*
X153786115Y-15972419D01*
X153786115Y-15972419D02*
X153214687Y-16972419D01*
X153214687Y-16972419D02*
X153214687Y-15972419D01*
X152738496Y-16972419D02*
X152738496Y-15972419D01*
X152738496Y-15972419D02*
X152500401Y-15972419D01*
X152500401Y-15972419D02*
X152357544Y-16020038D01*
X152357544Y-16020038D02*
X152262306Y-16115276D01*
X152262306Y-16115276D02*
X152214687Y-16210514D01*
X152214687Y-16210514D02*
X152167068Y-16400990D01*
X152167068Y-16400990D02*
X152167068Y-16543847D01*
X152167068Y-16543847D02*
X152214687Y-16734323D01*
X152214687Y-16734323D02*
X152262306Y-16829561D01*
X152262306Y-16829561D02*
X152357544Y-16924800D01*
X152357544Y-16924800D02*
X152500401Y-16972419D01*
X152500401Y-16972419D02*
X152738496Y-16972419D01*
X150643258Y-16448609D02*
X150500401Y-16496228D01*
X150500401Y-16496228D02*
X150452782Y-16543847D01*
X150452782Y-16543847D02*
X150405163Y-16639085D01*
X150405163Y-16639085D02*
X150405163Y-16781942D01*
X150405163Y-16781942D02*
X150452782Y-16877180D01*
X150452782Y-16877180D02*
X150500401Y-16924800D01*
X150500401Y-16924800D02*
X150595639Y-16972419D01*
X150595639Y-16972419D02*
X150976591Y-16972419D01*
X150976591Y-16972419D02*
X150976591Y-15972419D01*
X150976591Y-15972419D02*
X150643258Y-15972419D01*
X150643258Y-15972419D02*
X150548020Y-16020038D01*
X150548020Y-16020038D02*
X150500401Y-16067657D01*
X150500401Y-16067657D02*
X150452782Y-16162895D01*
X150452782Y-16162895D02*
X150452782Y-16258133D01*
X150452782Y-16258133D02*
X150500401Y-16353371D01*
X150500401Y-16353371D02*
X150548020Y-16400990D01*
X150548020Y-16400990D02*
X150643258Y-16448609D01*
X150643258Y-16448609D02*
X150976591Y-16448609D01*
X150024210Y-16686704D02*
X149548020Y-16686704D01*
X150119448Y-16972419D02*
X149786115Y-15972419D01*
X149786115Y-15972419D02*
X149452782Y-16972419D01*
X149262305Y-15972419D02*
X148690877Y-15972419D01*
X148976591Y-16972419D02*
X148976591Y-15972419D01*
D11*
X146594649Y-51412256D02*
X146689887Y-51459875D01*
X146689887Y-51459875D02*
X146880363Y-51459875D01*
X146880363Y-51459875D02*
X146975601Y-51412256D01*
X146975601Y-51412256D02*
X147023220Y-51364636D01*
X147023220Y-51364636D02*
X147070839Y-51269398D01*
X147070839Y-51269398D02*
X147070839Y-50983684D01*
X147070839Y-50983684D02*
X147023220Y-50888446D01*
X147023220Y-50888446D02*
X146975601Y-50840827D01*
X146975601Y-50840827D02*
X146880363Y-50793208D01*
X146880363Y-50793208D02*
X146689887Y-50793208D01*
X146689887Y-50793208D02*
X146594649Y-50840827D01*
X146023220Y-51459875D02*
X146118458Y-51412256D01*
X146118458Y-51412256D02*
X146166077Y-51364636D01*
X146166077Y-51364636D02*
X146213696Y-51269398D01*
X146213696Y-51269398D02*
X146213696Y-50983684D01*
X146213696Y-50983684D02*
X146166077Y-50888446D01*
X146166077Y-50888446D02*
X146118458Y-50840827D01*
X146118458Y-50840827D02*
X146023220Y-50793208D01*
X146023220Y-50793208D02*
X145880363Y-50793208D01*
X145880363Y-50793208D02*
X145785125Y-50840827D01*
X145785125Y-50840827D02*
X145737506Y-50888446D01*
X145737506Y-50888446D02*
X145689887Y-50983684D01*
X145689887Y-50983684D02*
X145689887Y-51269398D01*
X145689887Y-51269398D02*
X145737506Y-51364636D01*
X145737506Y-51364636D02*
X145785125Y-51412256D01*
X145785125Y-51412256D02*
X145880363Y-51459875D01*
X145880363Y-51459875D02*
X146023220Y-51459875D01*
X145118458Y-51459875D02*
X145213696Y-51412256D01*
X145213696Y-51412256D02*
X145261315Y-51364636D01*
X145261315Y-51364636D02*
X145308934Y-51269398D01*
X145308934Y-51269398D02*
X145308934Y-50983684D01*
X145308934Y-50983684D02*
X145261315Y-50888446D01*
X145261315Y-50888446D02*
X145213696Y-50840827D01*
X145213696Y-50840827D02*
X145118458Y-50793208D01*
X145118458Y-50793208D02*
X144975601Y-50793208D01*
X144975601Y-50793208D02*
X144880363Y-50840827D01*
X144880363Y-50840827D02*
X144832744Y-50888446D01*
X144832744Y-50888446D02*
X144785125Y-50983684D01*
X144785125Y-50983684D02*
X144785125Y-51269398D01*
X144785125Y-51269398D02*
X144832744Y-51364636D01*
X144832744Y-51364636D02*
X144880363Y-51412256D01*
X144880363Y-51412256D02*
X144975601Y-51459875D01*
X144975601Y-51459875D02*
X145118458Y-51459875D01*
X144213696Y-51459875D02*
X144308934Y-51412256D01*
X144308934Y-51412256D02*
X144356553Y-51317017D01*
X144356553Y-51317017D02*
X144356553Y-50459875D01*
X143832743Y-50793208D02*
X143832743Y-51793208D01*
X143832743Y-50840827D02*
X143737505Y-50793208D01*
X143737505Y-50793208D02*
X143547029Y-50793208D01*
X143547029Y-50793208D02*
X143451791Y-50840827D01*
X143451791Y-50840827D02*
X143404172Y-50888446D01*
X143404172Y-50888446D02*
X143356553Y-50983684D01*
X143356553Y-50983684D02*
X143356553Y-51269398D01*
X143356553Y-51269398D02*
X143404172Y-51364636D01*
X143404172Y-51364636D02*
X143451791Y-51412256D01*
X143451791Y-51412256D02*
X143547029Y-51459875D01*
X143547029Y-51459875D02*
X143737505Y-51459875D01*
X143737505Y-51459875D02*
X143832743Y-51412256D01*
X142499410Y-51459875D02*
X142499410Y-50936065D01*
X142499410Y-50936065D02*
X142547029Y-50840827D01*
X142547029Y-50840827D02*
X142642267Y-50793208D01*
X142642267Y-50793208D02*
X142832743Y-50793208D01*
X142832743Y-50793208D02*
X142927981Y-50840827D01*
X142499410Y-51412256D02*
X142594648Y-51459875D01*
X142594648Y-51459875D02*
X142832743Y-51459875D01*
X142832743Y-51459875D02*
X142927981Y-51412256D01*
X142927981Y-51412256D02*
X142975600Y-51317017D01*
X142975600Y-51317017D02*
X142975600Y-51221779D01*
X142975600Y-51221779D02*
X142927981Y-51126541D01*
X142927981Y-51126541D02*
X142832743Y-51078922D01*
X142832743Y-51078922D02*
X142594648Y-51078922D01*
X142594648Y-51078922D02*
X142499410Y-51031303D01*
X141594648Y-51459875D02*
X141594648Y-50459875D01*
X141594648Y-51412256D02*
X141689886Y-51459875D01*
X141689886Y-51459875D02*
X141880362Y-51459875D01*
X141880362Y-51459875D02*
X141975600Y-51412256D01*
X141975600Y-51412256D02*
X142023219Y-51364636D01*
X142023219Y-51364636D02*
X142070838Y-51269398D01*
X142070838Y-51269398D02*
X142070838Y-50983684D01*
X142070838Y-50983684D02*
X142023219Y-50888446D01*
X142023219Y-50888446D02*
X141975600Y-50840827D01*
X141975600Y-50840827D02*
X141880362Y-50793208D01*
X141880362Y-50793208D02*
X141689886Y-50793208D01*
X141689886Y-50793208D02*
X141594648Y-50840827D01*
X140927981Y-50459875D02*
X140832743Y-50459875D01*
X140832743Y-50459875D02*
X140737505Y-50507494D01*
X140737505Y-50507494D02*
X140689886Y-50555113D01*
X140689886Y-50555113D02*
X140642267Y-50650351D01*
X140642267Y-50650351D02*
X140594648Y-50840827D01*
X140594648Y-50840827D02*
X140594648Y-51078922D01*
X140594648Y-51078922D02*
X140642267Y-51269398D01*
X140642267Y-51269398D02*
X140689886Y-51364636D01*
X140689886Y-51364636D02*
X140737505Y-51412256D01*
X140737505Y-51412256D02*
X140832743Y-51459875D01*
X140832743Y-51459875D02*
X140927981Y-51459875D01*
X140927981Y-51459875D02*
X141023219Y-51412256D01*
X141023219Y-51412256D02*
X141070838Y-51364636D01*
X141070838Y-51364636D02*
X141118457Y-51269398D01*
X141118457Y-51269398D02*
X141166076Y-51078922D01*
X141166076Y-51078922D02*
X141166076Y-50840827D01*
X141166076Y-50840827D02*
X141118457Y-50650351D01*
X141118457Y-50650351D02*
X141070838Y-50555113D01*
X141070838Y-50555113D02*
X141023219Y-50507494D01*
X141023219Y-50507494D02*
X140927981Y-50459875D01*
X139975600Y-50459875D02*
X139880362Y-50459875D01*
X139880362Y-50459875D02*
X139785124Y-50507494D01*
X139785124Y-50507494D02*
X139737505Y-50555113D01*
X139737505Y-50555113D02*
X139689886Y-50650351D01*
X139689886Y-50650351D02*
X139642267Y-50840827D01*
X139642267Y-50840827D02*
X139642267Y-51078922D01*
X139642267Y-51078922D02*
X139689886Y-51269398D01*
X139689886Y-51269398D02*
X139737505Y-51364636D01*
X139737505Y-51364636D02*
X139785124Y-51412256D01*
X139785124Y-51412256D02*
X139880362Y-51459875D01*
X139880362Y-51459875D02*
X139975600Y-51459875D01*
X139975600Y-51459875D02*
X140070838Y-51412256D01*
X140070838Y-51412256D02*
X140118457Y-51364636D01*
X140118457Y-51364636D02*
X140166076Y-51269398D01*
X140166076Y-51269398D02*
X140213695Y-51078922D01*
X140213695Y-51078922D02*
X140213695Y-50840827D01*
X140213695Y-50840827D02*
X140166076Y-50650351D01*
X140166076Y-50650351D02*
X140118457Y-50555113D01*
X140118457Y-50555113D02*
X140070838Y-50507494D01*
X140070838Y-50507494D02*
X139975600Y-50459875D01*
X139261314Y-50555113D02*
X139213695Y-50507494D01*
X139213695Y-50507494D02*
X139118457Y-50459875D01*
X139118457Y-50459875D02*
X138880362Y-50459875D01*
X138880362Y-50459875D02*
X138785124Y-50507494D01*
X138785124Y-50507494D02*
X138737505Y-50555113D01*
X138737505Y-50555113D02*
X138689886Y-50650351D01*
X138689886Y-50650351D02*
X138689886Y-50745589D01*
X138689886Y-50745589D02*
X138737505Y-50888446D01*
X138737505Y-50888446D02*
X139308933Y-51459875D01*
X139308933Y-51459875D02*
X138689886Y-51459875D01*
X137070838Y-51459875D02*
X137070838Y-50459875D01*
X137070838Y-51412256D02*
X137166076Y-51459875D01*
X137166076Y-51459875D02*
X137356552Y-51459875D01*
X137356552Y-51459875D02*
X137451790Y-51412256D01*
X137451790Y-51412256D02*
X137499409Y-51364636D01*
X137499409Y-51364636D02*
X137547028Y-51269398D01*
X137547028Y-51269398D02*
X137547028Y-50983684D01*
X137547028Y-50983684D02*
X137499409Y-50888446D01*
X137499409Y-50888446D02*
X137451790Y-50840827D01*
X137451790Y-50840827D02*
X137356552Y-50793208D01*
X137356552Y-50793208D02*
X137166076Y-50793208D01*
X137166076Y-50793208D02*
X137070838Y-50840827D01*
X136213695Y-51412256D02*
X136308933Y-51459875D01*
X136308933Y-51459875D02*
X136499409Y-51459875D01*
X136499409Y-51459875D02*
X136594647Y-51412256D01*
X136594647Y-51412256D02*
X136642266Y-51317017D01*
X136642266Y-51317017D02*
X136642266Y-50936065D01*
X136642266Y-50936065D02*
X136594647Y-50840827D01*
X136594647Y-50840827D02*
X136499409Y-50793208D01*
X136499409Y-50793208D02*
X136308933Y-50793208D01*
X136308933Y-50793208D02*
X136213695Y-50840827D01*
X136213695Y-50840827D02*
X136166076Y-50936065D01*
X136166076Y-50936065D02*
X136166076Y-51031303D01*
X136166076Y-51031303D02*
X136642266Y-51126541D01*
X135785123Y-51412256D02*
X135689885Y-51459875D01*
X135689885Y-51459875D02*
X135499409Y-51459875D01*
X135499409Y-51459875D02*
X135404171Y-51412256D01*
X135404171Y-51412256D02*
X135356552Y-51317017D01*
X135356552Y-51317017D02*
X135356552Y-51269398D01*
X135356552Y-51269398D02*
X135404171Y-51174160D01*
X135404171Y-51174160D02*
X135499409Y-51126541D01*
X135499409Y-51126541D02*
X135642266Y-51126541D01*
X135642266Y-51126541D02*
X135737504Y-51078922D01*
X135737504Y-51078922D02*
X135785123Y-50983684D01*
X135785123Y-50983684D02*
X135785123Y-50936065D01*
X135785123Y-50936065D02*
X135737504Y-50840827D01*
X135737504Y-50840827D02*
X135642266Y-50793208D01*
X135642266Y-50793208D02*
X135499409Y-50793208D01*
X135499409Y-50793208D02*
X135404171Y-50840827D01*
X134927980Y-51459875D02*
X134927980Y-50793208D01*
X134927980Y-50459875D02*
X134975599Y-50507494D01*
X134975599Y-50507494D02*
X134927980Y-50555113D01*
X134927980Y-50555113D02*
X134880361Y-50507494D01*
X134880361Y-50507494D02*
X134927980Y-50459875D01*
X134927980Y-50459875D02*
X134927980Y-50555113D01*
X134023219Y-50793208D02*
X134023219Y-51602732D01*
X134023219Y-51602732D02*
X134070838Y-51697970D01*
X134070838Y-51697970D02*
X134118457Y-51745589D01*
X134118457Y-51745589D02*
X134213695Y-51793208D01*
X134213695Y-51793208D02*
X134356552Y-51793208D01*
X134356552Y-51793208D02*
X134451790Y-51745589D01*
X134023219Y-51412256D02*
X134118457Y-51459875D01*
X134118457Y-51459875D02*
X134308933Y-51459875D01*
X134308933Y-51459875D02*
X134404171Y-51412256D01*
X134404171Y-51412256D02*
X134451790Y-51364636D01*
X134451790Y-51364636D02*
X134499409Y-51269398D01*
X134499409Y-51269398D02*
X134499409Y-50983684D01*
X134499409Y-50983684D02*
X134451790Y-50888446D01*
X134451790Y-50888446D02*
X134404171Y-50840827D01*
X134404171Y-50840827D02*
X134308933Y-50793208D01*
X134308933Y-50793208D02*
X134118457Y-50793208D01*
X134118457Y-50793208D02*
X134023219Y-50840827D01*
X133547028Y-50793208D02*
X133547028Y-51459875D01*
X133547028Y-50888446D02*
X133499409Y-50840827D01*
X133499409Y-50840827D02*
X133404171Y-50793208D01*
X133404171Y-50793208D02*
X133261314Y-50793208D01*
X133261314Y-50793208D02*
X133166076Y-50840827D01*
X133166076Y-50840827D02*
X133118457Y-50936065D01*
X133118457Y-50936065D02*
X133118457Y-51459875D01*
X132261314Y-51412256D02*
X132356552Y-51459875D01*
X132356552Y-51459875D02*
X132547028Y-51459875D01*
X132547028Y-51459875D02*
X132642266Y-51412256D01*
X132642266Y-51412256D02*
X132689885Y-51317017D01*
X132689885Y-51317017D02*
X132689885Y-50936065D01*
X132689885Y-50936065D02*
X132642266Y-50840827D01*
X132642266Y-50840827D02*
X132547028Y-50793208D01*
X132547028Y-50793208D02*
X132356552Y-50793208D01*
X132356552Y-50793208D02*
X132261314Y-50840827D01*
X132261314Y-50840827D02*
X132213695Y-50936065D01*
X132213695Y-50936065D02*
X132213695Y-51031303D01*
X132213695Y-51031303D02*
X132689885Y-51126541D01*
X131356552Y-51459875D02*
X131356552Y-50459875D01*
X131356552Y-51412256D02*
X131451790Y-51459875D01*
X131451790Y-51459875D02*
X131642266Y-51459875D01*
X131642266Y-51459875D02*
X131737504Y-51412256D01*
X131737504Y-51412256D02*
X131785123Y-51364636D01*
X131785123Y-51364636D02*
X131832742Y-51269398D01*
X131832742Y-51269398D02*
X131832742Y-50983684D01*
X131832742Y-50983684D02*
X131785123Y-50888446D01*
X131785123Y-50888446D02*
X131737504Y-50840827D01*
X131737504Y-50840827D02*
X131642266Y-50793208D01*
X131642266Y-50793208D02*
X131451790Y-50793208D01*
X131451790Y-50793208D02*
X131356552Y-50840827D01*
X130118456Y-51459875D02*
X130118456Y-50459875D01*
X130118456Y-50840827D02*
X130023218Y-50793208D01*
X130023218Y-50793208D02*
X129832742Y-50793208D01*
X129832742Y-50793208D02*
X129737504Y-50840827D01*
X129737504Y-50840827D02*
X129689885Y-50888446D01*
X129689885Y-50888446D02*
X129642266Y-50983684D01*
X129642266Y-50983684D02*
X129642266Y-51269398D01*
X129642266Y-51269398D02*
X129689885Y-51364636D01*
X129689885Y-51364636D02*
X129737504Y-51412256D01*
X129737504Y-51412256D02*
X129832742Y-51459875D01*
X129832742Y-51459875D02*
X130023218Y-51459875D01*
X130023218Y-51459875D02*
X130118456Y-51412256D01*
X129308932Y-50793208D02*
X129070837Y-51459875D01*
X128832742Y-50793208D02*
X129070837Y-51459875D01*
X129070837Y-51459875D02*
X129166075Y-51697970D01*
X129166075Y-51697970D02*
X129213694Y-51745589D01*
X129213694Y-51745589D02*
X129308932Y-51793208D01*
X127689884Y-51459875D02*
X127689884Y-50793208D01*
X127689884Y-50888446D02*
X127642265Y-50840827D01*
X127642265Y-50840827D02*
X127547027Y-50793208D01*
X127547027Y-50793208D02*
X127404170Y-50793208D01*
X127404170Y-50793208D02*
X127308932Y-50840827D01*
X127308932Y-50840827D02*
X127261313Y-50936065D01*
X127261313Y-50936065D02*
X127261313Y-51459875D01*
X127261313Y-50936065D02*
X127213694Y-50840827D01*
X127213694Y-50840827D02*
X127118456Y-50793208D01*
X127118456Y-50793208D02*
X126975599Y-50793208D01*
X126975599Y-50793208D02*
X126880360Y-50840827D01*
X126880360Y-50840827D02*
X126832741Y-50936065D01*
X126832741Y-50936065D02*
X126832741Y-51459875D01*
X126356551Y-51364636D02*
X126308932Y-51412256D01*
X126308932Y-51412256D02*
X126356551Y-51459875D01*
X126356551Y-51459875D02*
X126404170Y-51412256D01*
X126404170Y-51412256D02*
X126356551Y-51364636D01*
X126356551Y-51364636D02*
X126356551Y-51459875D01*
X125880361Y-51459875D02*
X125880361Y-50459875D01*
X125785123Y-51078922D02*
X125499409Y-51459875D01*
X125499409Y-50793208D02*
X125880361Y-51174160D01*
X125070837Y-51459875D02*
X125070837Y-50793208D01*
X125070837Y-50459875D02*
X125118456Y-50507494D01*
X125118456Y-50507494D02*
X125070837Y-50555113D01*
X125070837Y-50555113D02*
X125023218Y-50507494D01*
X125023218Y-50507494D02*
X125070837Y-50459875D01*
X125070837Y-50459875D02*
X125070837Y-50555113D01*
X147118458Y-52403152D02*
X146880363Y-53069819D01*
X146880363Y-53069819D02*
X146642268Y-52403152D01*
X145880363Y-53022200D02*
X145975601Y-53069819D01*
X145975601Y-53069819D02*
X146166077Y-53069819D01*
X146166077Y-53069819D02*
X146261315Y-53022200D01*
X146261315Y-53022200D02*
X146308934Y-52926961D01*
X146308934Y-52926961D02*
X146308934Y-52546009D01*
X146308934Y-52546009D02*
X146261315Y-52450771D01*
X146261315Y-52450771D02*
X146166077Y-52403152D01*
X146166077Y-52403152D02*
X145975601Y-52403152D01*
X145975601Y-52403152D02*
X145880363Y-52450771D01*
X145880363Y-52450771D02*
X145832744Y-52546009D01*
X145832744Y-52546009D02*
X145832744Y-52641247D01*
X145832744Y-52641247D02*
X146308934Y-52736485D01*
X145404172Y-53069819D02*
X145404172Y-52403152D01*
X145404172Y-52593628D02*
X145356553Y-52498390D01*
X145356553Y-52498390D02*
X145308934Y-52450771D01*
X145308934Y-52450771D02*
X145213696Y-52403152D01*
X145213696Y-52403152D02*
X145118458Y-52403152D01*
X144785124Y-52974580D02*
X144737505Y-53022200D01*
X144737505Y-53022200D02*
X144785124Y-53069819D01*
X144785124Y-53069819D02*
X144832743Y-53022200D01*
X144832743Y-53022200D02*
X144785124Y-52974580D01*
X144785124Y-52974580D02*
X144785124Y-53069819D01*
X143785125Y-53069819D02*
X144356553Y-53069819D01*
X144070839Y-53069819D02*
X144070839Y-52069819D01*
X144070839Y-52069819D02*
X144166077Y-52212676D01*
X144166077Y-52212676D02*
X144261315Y-52307914D01*
X144261315Y-52307914D02*
X144356553Y-52355533D01*
X143356553Y-52974580D02*
X143308934Y-53022200D01*
X143308934Y-53022200D02*
X143356553Y-53069819D01*
X143356553Y-53069819D02*
X143404172Y-53022200D01*
X143404172Y-53022200D02*
X143356553Y-52974580D01*
X143356553Y-52974580D02*
X143356553Y-53069819D01*
X142975601Y-52069819D02*
X142356554Y-52069819D01*
X142356554Y-52069819D02*
X142689887Y-52450771D01*
X142689887Y-52450771D02*
X142547030Y-52450771D01*
X142547030Y-52450771D02*
X142451792Y-52498390D01*
X142451792Y-52498390D02*
X142404173Y-52546009D01*
X142404173Y-52546009D02*
X142356554Y-52641247D01*
X142356554Y-52641247D02*
X142356554Y-52879342D01*
X142356554Y-52879342D02*
X142404173Y-52974580D01*
X142404173Y-52974580D02*
X142451792Y-53022200D01*
X142451792Y-53022200D02*
X142547030Y-53069819D01*
X142547030Y-53069819D02*
X142832744Y-53069819D01*
X142832744Y-53069819D02*
X142927982Y-53022200D01*
X142927982Y-53022200D02*
X142975601Y-52974580D01*
X140737506Y-53069819D02*
X140737506Y-52069819D01*
X140737506Y-53022200D02*
X140832744Y-53069819D01*
X140832744Y-53069819D02*
X141023220Y-53069819D01*
X141023220Y-53069819D02*
X141118458Y-53022200D01*
X141118458Y-53022200D02*
X141166077Y-52974580D01*
X141166077Y-52974580D02*
X141213696Y-52879342D01*
X141213696Y-52879342D02*
X141213696Y-52593628D01*
X141213696Y-52593628D02*
X141166077Y-52498390D01*
X141166077Y-52498390D02*
X141118458Y-52450771D01*
X141118458Y-52450771D02*
X141023220Y-52403152D01*
X141023220Y-52403152D02*
X140832744Y-52403152D01*
X140832744Y-52403152D02*
X140737506Y-52450771D01*
X139832744Y-53069819D02*
X139832744Y-52546009D01*
X139832744Y-52546009D02*
X139880363Y-52450771D01*
X139880363Y-52450771D02*
X139975601Y-52403152D01*
X139975601Y-52403152D02*
X140166077Y-52403152D01*
X140166077Y-52403152D02*
X140261315Y-52450771D01*
X139832744Y-53022200D02*
X139927982Y-53069819D01*
X139927982Y-53069819D02*
X140166077Y-53069819D01*
X140166077Y-53069819D02*
X140261315Y-53022200D01*
X140261315Y-53022200D02*
X140308934Y-52926961D01*
X140308934Y-52926961D02*
X140308934Y-52831723D01*
X140308934Y-52831723D02*
X140261315Y-52736485D01*
X140261315Y-52736485D02*
X140166077Y-52688866D01*
X140166077Y-52688866D02*
X139927982Y-52688866D01*
X139927982Y-52688866D02*
X139832744Y-52641247D01*
X139499410Y-52403152D02*
X139118458Y-52403152D01*
X139356553Y-52069819D02*
X139356553Y-52926961D01*
X139356553Y-52926961D02*
X139308934Y-53022200D01*
X139308934Y-53022200D02*
X139213696Y-53069819D01*
X139213696Y-53069819D02*
X139118458Y-53069819D01*
X138356553Y-53069819D02*
X138356553Y-52546009D01*
X138356553Y-52546009D02*
X138404172Y-52450771D01*
X138404172Y-52450771D02*
X138499410Y-52403152D01*
X138499410Y-52403152D02*
X138689886Y-52403152D01*
X138689886Y-52403152D02*
X138785124Y-52450771D01*
X138356553Y-53022200D02*
X138451791Y-53069819D01*
X138451791Y-53069819D02*
X138689886Y-53069819D01*
X138689886Y-53069819D02*
X138785124Y-53022200D01*
X138785124Y-53022200D02*
X138832743Y-52926961D01*
X138832743Y-52926961D02*
X138832743Y-52831723D01*
X138832743Y-52831723D02*
X138785124Y-52736485D01*
X138785124Y-52736485D02*
X138689886Y-52688866D01*
X138689886Y-52688866D02*
X138451791Y-52688866D01*
X138451791Y-52688866D02*
X138356553Y-52641247D01*
X137927981Y-52165057D02*
X137880362Y-52117438D01*
X137880362Y-52117438D02*
X137785124Y-52069819D01*
X137785124Y-52069819D02*
X137547029Y-52069819D01*
X137547029Y-52069819D02*
X137451791Y-52117438D01*
X137451791Y-52117438D02*
X137404172Y-52165057D01*
X137404172Y-52165057D02*
X137356553Y-52260295D01*
X137356553Y-52260295D02*
X137356553Y-52355533D01*
X137356553Y-52355533D02*
X137404172Y-52498390D01*
X137404172Y-52498390D02*
X137975600Y-53069819D01*
X137975600Y-53069819D02*
X137356553Y-53069819D01*
X136737505Y-52069819D02*
X136642267Y-52069819D01*
X136642267Y-52069819D02*
X136547029Y-52117438D01*
X136547029Y-52117438D02*
X136499410Y-52165057D01*
X136499410Y-52165057D02*
X136451791Y-52260295D01*
X136451791Y-52260295D02*
X136404172Y-52450771D01*
X136404172Y-52450771D02*
X136404172Y-52688866D01*
X136404172Y-52688866D02*
X136451791Y-52879342D01*
X136451791Y-52879342D02*
X136499410Y-52974580D01*
X136499410Y-52974580D02*
X136547029Y-53022200D01*
X136547029Y-53022200D02*
X136642267Y-53069819D01*
X136642267Y-53069819D02*
X136737505Y-53069819D01*
X136737505Y-53069819D02*
X136832743Y-53022200D01*
X136832743Y-53022200D02*
X136880362Y-52974580D01*
X136880362Y-52974580D02*
X136927981Y-52879342D01*
X136927981Y-52879342D02*
X136975600Y-52688866D01*
X136975600Y-52688866D02*
X136975600Y-52450771D01*
X136975600Y-52450771D02*
X136927981Y-52260295D01*
X136927981Y-52260295D02*
X136880362Y-52165057D01*
X136880362Y-52165057D02*
X136832743Y-52117438D01*
X136832743Y-52117438D02*
X136737505Y-52069819D01*
X136023219Y-52165057D02*
X135975600Y-52117438D01*
X135975600Y-52117438D02*
X135880362Y-52069819D01*
X135880362Y-52069819D02*
X135642267Y-52069819D01*
X135642267Y-52069819D02*
X135547029Y-52117438D01*
X135547029Y-52117438D02*
X135499410Y-52165057D01*
X135499410Y-52165057D02*
X135451791Y-52260295D01*
X135451791Y-52260295D02*
X135451791Y-52355533D01*
X135451791Y-52355533D02*
X135499410Y-52498390D01*
X135499410Y-52498390D02*
X136070838Y-53069819D01*
X136070838Y-53069819D02*
X135451791Y-53069819D01*
X134547029Y-52069819D02*
X135023219Y-52069819D01*
X135023219Y-52069819D02*
X135070838Y-52546009D01*
X135070838Y-52546009D02*
X135023219Y-52498390D01*
X135023219Y-52498390D02*
X134927981Y-52450771D01*
X134927981Y-52450771D02*
X134689886Y-52450771D01*
X134689886Y-52450771D02*
X134594648Y-52498390D01*
X134594648Y-52498390D02*
X134547029Y-52546009D01*
X134547029Y-52546009D02*
X134499410Y-52641247D01*
X134499410Y-52641247D02*
X134499410Y-52879342D01*
X134499410Y-52879342D02*
X134547029Y-52974580D01*
X134547029Y-52974580D02*
X134594648Y-53022200D01*
X134594648Y-53022200D02*
X134689886Y-53069819D01*
X134689886Y-53069819D02*
X134927981Y-53069819D01*
X134927981Y-53069819D02*
X135023219Y-53022200D01*
X135023219Y-53022200D02*
X135070838Y-52974580D01*
X133880362Y-52069819D02*
X133785124Y-52069819D01*
X133785124Y-52069819D02*
X133689886Y-52117438D01*
X133689886Y-52117438D02*
X133642267Y-52165057D01*
X133642267Y-52165057D02*
X133594648Y-52260295D01*
X133594648Y-52260295D02*
X133547029Y-52450771D01*
X133547029Y-52450771D02*
X133547029Y-52688866D01*
X133547029Y-52688866D02*
X133594648Y-52879342D01*
X133594648Y-52879342D02*
X133642267Y-52974580D01*
X133642267Y-52974580D02*
X133689886Y-53022200D01*
X133689886Y-53022200D02*
X133785124Y-53069819D01*
X133785124Y-53069819D02*
X133880362Y-53069819D01*
X133880362Y-53069819D02*
X133975600Y-53022200D01*
X133975600Y-53022200D02*
X134023219Y-52974580D01*
X134023219Y-52974580D02*
X134070838Y-52879342D01*
X134070838Y-52879342D02*
X134118457Y-52688866D01*
X134118457Y-52688866D02*
X134118457Y-52450771D01*
X134118457Y-52450771D02*
X134070838Y-52260295D01*
X134070838Y-52260295D02*
X134023219Y-52165057D01*
X134023219Y-52165057D02*
X133975600Y-52117438D01*
X133975600Y-52117438D02*
X133880362Y-52069819D01*
X132594648Y-53069819D02*
X133166076Y-53069819D01*
X132880362Y-53069819D02*
X132880362Y-52069819D01*
X132880362Y-52069819D02*
X132975600Y-52212676D01*
X132975600Y-52212676D02*
X133070838Y-52307914D01*
X133070838Y-52307914D02*
X133166076Y-52355533D01*
X132213695Y-52165057D02*
X132166076Y-52117438D01*
X132166076Y-52117438D02*
X132070838Y-52069819D01*
X132070838Y-52069819D02*
X131832743Y-52069819D01*
X131832743Y-52069819D02*
X131737505Y-52117438D01*
X131737505Y-52117438D02*
X131689886Y-52165057D01*
X131689886Y-52165057D02*
X131642267Y-52260295D01*
X131642267Y-52260295D02*
X131642267Y-52355533D01*
X131642267Y-52355533D02*
X131689886Y-52498390D01*
X131689886Y-52498390D02*
X132261314Y-53069819D01*
X132261314Y-53069819D02*
X131642267Y-53069819D01*
X131261314Y-52165057D02*
X131213695Y-52117438D01*
X131213695Y-52117438D02*
X131118457Y-52069819D01*
X131118457Y-52069819D02*
X130880362Y-52069819D01*
X130880362Y-52069819D02*
X130785124Y-52117438D01*
X130785124Y-52117438D02*
X130737505Y-52165057D01*
X130737505Y-52165057D02*
X130689886Y-52260295D01*
X130689886Y-52260295D02*
X130689886Y-52355533D01*
X130689886Y-52355533D02*
X130737505Y-52498390D01*
X130737505Y-52498390D02*
X131308933Y-53069819D01*
X131308933Y-53069819D02*
X130689886Y-53069819D01*
D12*
X133270475Y-56543595D02*
X133270475Y-55743595D01*
X133270475Y-55743595D02*
X133079999Y-55743595D01*
X133079999Y-55743595D02*
X132965713Y-55781690D01*
X132965713Y-55781690D02*
X132889523Y-55857880D01*
X132889523Y-55857880D02*
X132851428Y-55934071D01*
X132851428Y-55934071D02*
X132813332Y-56086452D01*
X132813332Y-56086452D02*
X132813332Y-56200738D01*
X132813332Y-56200738D02*
X132851428Y-56353119D01*
X132851428Y-56353119D02*
X132889523Y-56429309D01*
X132889523Y-56429309D02*
X132965713Y-56505500D01*
X132965713Y-56505500D02*
X133079999Y-56543595D01*
X133079999Y-56543595D02*
X133270475Y-56543595D01*
X132051428Y-56543595D02*
X132508571Y-56543595D01*
X132279999Y-56543595D02*
X132279999Y-55743595D01*
X132279999Y-55743595D02*
X132356190Y-55857880D01*
X132356190Y-55857880D02*
X132432380Y-55934071D01*
X132432380Y-55934071D02*
X132508571Y-55972166D01*
X140765475Y-56573595D02*
X140765475Y-55773595D01*
X140765475Y-55773595D02*
X140574999Y-55773595D01*
X140574999Y-55773595D02*
X140460713Y-55811690D01*
X140460713Y-55811690D02*
X140384523Y-55887880D01*
X140384523Y-55887880D02*
X140346428Y-55964071D01*
X140346428Y-55964071D02*
X140308332Y-56116452D01*
X140308332Y-56116452D02*
X140308332Y-56230738D01*
X140308332Y-56230738D02*
X140346428Y-56383119D01*
X140346428Y-56383119D02*
X140384523Y-56459309D01*
X140384523Y-56459309D02*
X140460713Y-56535500D01*
X140460713Y-56535500D02*
X140574999Y-56573595D01*
X140574999Y-56573595D02*
X140765475Y-56573595D01*
X139584523Y-55773595D02*
X139965475Y-55773595D01*
X139965475Y-55773595D02*
X140003571Y-56154547D01*
X140003571Y-56154547D02*
X139965475Y-56116452D01*
X139965475Y-56116452D02*
X139889285Y-56078357D01*
X139889285Y-56078357D02*
X139698809Y-56078357D01*
X139698809Y-56078357D02*
X139622618Y-56116452D01*
X139622618Y-56116452D02*
X139584523Y-56154547D01*
X139584523Y-56154547D02*
X139546428Y-56230738D01*
X139546428Y-56230738D02*
X139546428Y-56421214D01*
X139546428Y-56421214D02*
X139584523Y-56497404D01*
X139584523Y-56497404D02*
X139622618Y-56535500D01*
X139622618Y-56535500D02*
X139698809Y-56573595D01*
X139698809Y-56573595D02*
X139889285Y-56573595D01*
X139889285Y-56573595D02*
X139965475Y-56535500D01*
X139965475Y-56535500D02*
X140003571Y-56497404D01*
D13*
X151473333Y-30500440D02*
X151497142Y-30524250D01*
X151497142Y-30524250D02*
X151568571Y-30548059D01*
X151568571Y-30548059D02*
X151616190Y-30548059D01*
X151616190Y-30548059D02*
X151687618Y-30524250D01*
X151687618Y-30524250D02*
X151735237Y-30476630D01*
X151735237Y-30476630D02*
X151759047Y-30429011D01*
X151759047Y-30429011D02*
X151782856Y-30333773D01*
X151782856Y-30333773D02*
X151782856Y-30262345D01*
X151782856Y-30262345D02*
X151759047Y-30167107D01*
X151759047Y-30167107D02*
X151735237Y-30119488D01*
X151735237Y-30119488D02*
X151687618Y-30071869D01*
X151687618Y-30071869D02*
X151616190Y-30048059D01*
X151616190Y-30048059D02*
X151568571Y-30048059D01*
X151568571Y-30048059D02*
X151497142Y-30071869D01*
X151497142Y-30071869D02*
X151473333Y-30095678D01*
X151306666Y-30048059D02*
X150973333Y-30048059D01*
X150973333Y-30048059D02*
X151187618Y-30548059D01*
X151473333Y-36500440D02*
X151497142Y-36524250D01*
X151497142Y-36524250D02*
X151568571Y-36548059D01*
X151568571Y-36548059D02*
X151616190Y-36548059D01*
X151616190Y-36548059D02*
X151687618Y-36524250D01*
X151687618Y-36524250D02*
X151735237Y-36476630D01*
X151735237Y-36476630D02*
X151759047Y-36429011D01*
X151759047Y-36429011D02*
X151782856Y-36333773D01*
X151782856Y-36333773D02*
X151782856Y-36262345D01*
X151782856Y-36262345D02*
X151759047Y-36167107D01*
X151759047Y-36167107D02*
X151735237Y-36119488D01*
X151735237Y-36119488D02*
X151687618Y-36071869D01*
X151687618Y-36071869D02*
X151616190Y-36048059D01*
X151616190Y-36048059D02*
X151568571Y-36048059D01*
X151568571Y-36048059D02*
X151497142Y-36071869D01*
X151497142Y-36071869D02*
X151473333Y-36095678D01*
X151235237Y-36548059D02*
X151139999Y-36548059D01*
X151139999Y-36548059D02*
X151092380Y-36524250D01*
X151092380Y-36524250D02*
X151068571Y-36500440D01*
X151068571Y-36500440D02*
X151020952Y-36429011D01*
X151020952Y-36429011D02*
X150997142Y-36333773D01*
X150997142Y-36333773D02*
X150997142Y-36143297D01*
X150997142Y-36143297D02*
X151020952Y-36095678D01*
X151020952Y-36095678D02*
X151044761Y-36071869D01*
X151044761Y-36071869D02*
X151092380Y-36048059D01*
X151092380Y-36048059D02*
X151187618Y-36048059D01*
X151187618Y-36048059D02*
X151235237Y-36071869D01*
X151235237Y-36071869D02*
X151259047Y-36095678D01*
X151259047Y-36095678D02*
X151282856Y-36143297D01*
X151282856Y-36143297D02*
X151282856Y-36262345D01*
X151282856Y-36262345D02*
X151259047Y-36309964D01*
X151259047Y-36309964D02*
X151235237Y-36333773D01*
X151235237Y-36333773D02*
X151187618Y-36357583D01*
X151187618Y-36357583D02*
X151092380Y-36357583D01*
X151092380Y-36357583D02*
X151044761Y-36333773D01*
X151044761Y-36333773D02*
X151020952Y-36309964D01*
X151020952Y-36309964D02*
X150997142Y-36262345D01*
D11*
X119624819Y-37700595D02*
X120434342Y-37700595D01*
X120434342Y-37700595D02*
X120529580Y-37748214D01*
X120529580Y-37748214D02*
X120577200Y-37795833D01*
X120577200Y-37795833D02*
X120624819Y-37891071D01*
X120624819Y-37891071D02*
X120624819Y-38081547D01*
X120624819Y-38081547D02*
X120577200Y-38176785D01*
X120577200Y-38176785D02*
X120529580Y-38224404D01*
X120529580Y-38224404D02*
X120434342Y-38272023D01*
X120434342Y-38272023D02*
X119624819Y-38272023D01*
X120624819Y-39272023D02*
X120624819Y-38700595D01*
X120624819Y-38986309D02*
X119624819Y-38986309D01*
X119624819Y-38986309D02*
X119767676Y-38891071D01*
X119767676Y-38891071D02*
X119862914Y-38795833D01*
X119862914Y-38795833D02*
X119910533Y-38700595D01*
D13*
X151473333Y-33500440D02*
X151497142Y-33524250D01*
X151497142Y-33524250D02*
X151568571Y-33548059D01*
X151568571Y-33548059D02*
X151616190Y-33548059D01*
X151616190Y-33548059D02*
X151687618Y-33524250D01*
X151687618Y-33524250D02*
X151735237Y-33476630D01*
X151735237Y-33476630D02*
X151759047Y-33429011D01*
X151759047Y-33429011D02*
X151782856Y-33333773D01*
X151782856Y-33333773D02*
X151782856Y-33262345D01*
X151782856Y-33262345D02*
X151759047Y-33167107D01*
X151759047Y-33167107D02*
X151735237Y-33119488D01*
X151735237Y-33119488D02*
X151687618Y-33071869D01*
X151687618Y-33071869D02*
X151616190Y-33048059D01*
X151616190Y-33048059D02*
X151568571Y-33048059D01*
X151568571Y-33048059D02*
X151497142Y-33071869D01*
X151497142Y-33071869D02*
X151473333Y-33095678D01*
X151187618Y-33262345D02*
X151235237Y-33238535D01*
X151235237Y-33238535D02*
X151259047Y-33214726D01*
X151259047Y-33214726D02*
X151282856Y-33167107D01*
X151282856Y-33167107D02*
X151282856Y-33143297D01*
X151282856Y-33143297D02*
X151259047Y-33095678D01*
X151259047Y-33095678D02*
X151235237Y-33071869D01*
X151235237Y-33071869D02*
X151187618Y-33048059D01*
X151187618Y-33048059D02*
X151092380Y-33048059D01*
X151092380Y-33048059D02*
X151044761Y-33071869D01*
X151044761Y-33071869D02*
X151020952Y-33095678D01*
X151020952Y-33095678D02*
X150997142Y-33143297D01*
X150997142Y-33143297D02*
X150997142Y-33167107D01*
X150997142Y-33167107D02*
X151020952Y-33214726D01*
X151020952Y-33214726D02*
X151044761Y-33238535D01*
X151044761Y-33238535D02*
X151092380Y-33262345D01*
X151092380Y-33262345D02*
X151187618Y-33262345D01*
X151187618Y-33262345D02*
X151235237Y-33286154D01*
X151235237Y-33286154D02*
X151259047Y-33309964D01*
X151259047Y-33309964D02*
X151282856Y-33357583D01*
X151282856Y-33357583D02*
X151282856Y-33452821D01*
X151282856Y-33452821D02*
X151259047Y-33500440D01*
X151259047Y-33500440D02*
X151235237Y-33524250D01*
X151235237Y-33524250D02*
X151187618Y-33548059D01*
X151187618Y-33548059D02*
X151092380Y-33548059D01*
X151092380Y-33548059D02*
X151044761Y-33524250D01*
X151044761Y-33524250D02*
X151020952Y-33500440D01*
X151020952Y-33500440D02*
X150997142Y-33452821D01*
X150997142Y-33452821D02*
X150997142Y-33357583D01*
X150997142Y-33357583D02*
X151020952Y-33309964D01*
X151020952Y-33309964D02*
X151044761Y-33286154D01*
X151044761Y-33286154D02*
X151092380Y-33262345D01*
X151473333Y-27500440D02*
X151497142Y-27524250D01*
X151497142Y-27524250D02*
X151568571Y-27548059D01*
X151568571Y-27548059D02*
X151616190Y-27548059D01*
X151616190Y-27548059D02*
X151687618Y-27524250D01*
X151687618Y-27524250D02*
X151735237Y-27476630D01*
X151735237Y-27476630D02*
X151759047Y-27429011D01*
X151759047Y-27429011D02*
X151782856Y-27333773D01*
X151782856Y-27333773D02*
X151782856Y-27262345D01*
X151782856Y-27262345D02*
X151759047Y-27167107D01*
X151759047Y-27167107D02*
X151735237Y-27119488D01*
X151735237Y-27119488D02*
X151687618Y-27071869D01*
X151687618Y-27071869D02*
X151616190Y-27048059D01*
X151616190Y-27048059D02*
X151568571Y-27048059D01*
X151568571Y-27048059D02*
X151497142Y-27071869D01*
X151497142Y-27071869D02*
X151473333Y-27095678D01*
X151044761Y-27048059D02*
X151139999Y-27048059D01*
X151139999Y-27048059D02*
X151187618Y-27071869D01*
X151187618Y-27071869D02*
X151211428Y-27095678D01*
X151211428Y-27095678D02*
X151259047Y-27167107D01*
X151259047Y-27167107D02*
X151282856Y-27262345D01*
X151282856Y-27262345D02*
X151282856Y-27452821D01*
X151282856Y-27452821D02*
X151259047Y-27500440D01*
X151259047Y-27500440D02*
X151235237Y-27524250D01*
X151235237Y-27524250D02*
X151187618Y-27548059D01*
X151187618Y-27548059D02*
X151092380Y-27548059D01*
X151092380Y-27548059D02*
X151044761Y-27524250D01*
X151044761Y-27524250D02*
X151020952Y-27500440D01*
X151020952Y-27500440D02*
X150997142Y-27452821D01*
X150997142Y-27452821D02*
X150997142Y-27333773D01*
X150997142Y-27333773D02*
X151020952Y-27286154D01*
X151020952Y-27286154D02*
X151044761Y-27262345D01*
X151044761Y-27262345D02*
X151092380Y-27238535D01*
X151092380Y-27238535D02*
X151187618Y-27238535D01*
X151187618Y-27238535D02*
X151235237Y-27262345D01*
X151235237Y-27262345D02*
X151259047Y-27286154D01*
X151259047Y-27286154D02*
X151282856Y-27333773D01*
X151473333Y-39548059D02*
X151639999Y-39309964D01*
X151759047Y-39548059D02*
X151759047Y-39048059D01*
X151759047Y-39048059D02*
X151568571Y-39048059D01*
X151568571Y-39048059D02*
X151520952Y-39071869D01*
X151520952Y-39071869D02*
X151497142Y-39095678D01*
X151497142Y-39095678D02*
X151473333Y-39143297D01*
X151473333Y-39143297D02*
X151473333Y-39214726D01*
X151473333Y-39214726D02*
X151497142Y-39262345D01*
X151497142Y-39262345D02*
X151520952Y-39286154D01*
X151520952Y-39286154D02*
X151568571Y-39309964D01*
X151568571Y-39309964D02*
X151759047Y-39309964D01*
X150997142Y-39548059D02*
X151282856Y-39548059D01*
X151139999Y-39548059D02*
X151139999Y-39048059D01*
X151139999Y-39048059D02*
X151187618Y-39119488D01*
X151187618Y-39119488D02*
X151235237Y-39167107D01*
X151235237Y-39167107D02*
X151282856Y-39190916D01*
D11*
%TO.C,SW6*%
X139590000Y-66570000D02*
X139565000Y-71170000D01*
X140765000Y-60320000D02*
X140765000Y-64265000D01*
X140765000Y-64274000D02*
X144375000Y-64274000D01*
X143365000Y-71195000D02*
X139590000Y-71195000D01*
X144290000Y-66545000D02*
X139590000Y-66545000D01*
X144585000Y-72670000D02*
X144585000Y-73370000D01*
X149140000Y-68745000D02*
X146590000Y-68745000D01*
X149140000Y-73395000D02*
X144590000Y-73395000D01*
X149165000Y-68770000D02*
X149165000Y-73370000D01*
X151665000Y-58366000D02*
X143040000Y-58366000D01*
X151665000Y-62274000D02*
X151665000Y-58366000D01*
X151665000Y-62320000D02*
X146615000Y-62366000D01*
X140776000Y-60250000D02*
G75*
G02*
X143040000Y-58366000I2074000J-190000D01*
G01*
X143365000Y-71200000D02*
G75*
G02*
X144585000Y-72620000I-100000J-1320000D01*
G01*
X144380000Y-64250000D02*
G75*
G02*
X146640000Y-62370000I2070000J-190000D01*
G01*
X146665000Y-68740000D02*
G75*
G02*
X144295000Y-66570000I-100000J2270000D01*
G01*
%TO.C,SW2*%
X120480000Y-66580000D02*
X120455000Y-71180000D01*
X121655000Y-60330000D02*
X121655000Y-64275000D01*
X121655000Y-64284000D02*
X125265000Y-64284000D01*
X124255000Y-71205000D02*
X120480000Y-71205000D01*
X125180000Y-66555000D02*
X120480000Y-66555000D01*
X125475000Y-72680000D02*
X125475000Y-73380000D01*
X130030000Y-68755000D02*
X127480000Y-68755000D01*
X130030000Y-73405000D02*
X125480000Y-73405000D01*
X130055000Y-68780000D02*
X130055000Y-73380000D01*
X132555000Y-58376000D02*
X123930000Y-58376000D01*
X132555000Y-62284000D02*
X132555000Y-58376000D01*
X132555000Y-62330000D02*
X127505000Y-62376000D01*
X121666000Y-60260000D02*
G75*
G02*
X123930000Y-58376000I2074000J-190000D01*
G01*
X124255000Y-71210000D02*
G75*
G02*
X125475000Y-72630000I-100000J-1320000D01*
G01*
X125270000Y-64260000D02*
G75*
G02*
X127530000Y-62380000I2070000J-190000D01*
G01*
X127555000Y-68750000D02*
G75*
G02*
X125185000Y-66580000I-100000J2270000D01*
G01*
%TO.C,D1*%
X129980000Y-54030000D02*
X129980000Y-55530000D01*
X129980000Y-55530000D02*
X135380000Y-55530000D01*
X132180000Y-54280000D02*
X132180000Y-55280000D01*
X132280000Y-54780000D02*
X133180000Y-54280000D01*
X133180000Y-54280000D02*
X133180000Y-55280000D01*
X133180000Y-55280000D02*
X132280000Y-54780000D01*
X135380000Y-54030000D02*
X129980000Y-54030000D01*
X135380000Y-55530000D02*
X135380000Y-54030000D01*
%TO.C,D5*%
X137475000Y-54060000D02*
X137475000Y-55560000D01*
X137475000Y-55560000D02*
X142875000Y-55560000D01*
X139675000Y-54310000D02*
X139675000Y-55310000D01*
X139775000Y-54810000D02*
X140675000Y-54310000D01*
X140675000Y-54310000D02*
X140675000Y-55310000D01*
X140675000Y-55310000D02*
X139775000Y-54810000D01*
X142875000Y-54060000D02*
X137475000Y-54060000D01*
X142875000Y-55560000D02*
X142875000Y-54060000D01*
D14*
%TO.C,C2*%
X131027500Y-46512258D02*
X131027500Y-46037742D01*
X132072500Y-46512258D02*
X132072500Y-46037742D01*
%TO.C,C7*%
X151152742Y-31227500D02*
X151627258Y-31227500D01*
X151152742Y-32272500D02*
X151627258Y-32272500D01*
%TO.C,C5*%
X143417500Y-46447258D02*
X143417500Y-45972742D01*
X144462500Y-46447258D02*
X144462500Y-45972742D01*
%TO.C,C1*%
X134167500Y-45997742D02*
X134167500Y-46472258D01*
X135212500Y-45997742D02*
X135212500Y-46472258D01*
%TO.C,C9*%
X151152742Y-37227500D02*
X151627258Y-37227500D01*
X151152742Y-38272500D02*
X151627258Y-38272500D01*
%TO.C,U1*%
X121010000Y-37812500D02*
X121010000Y-38462500D01*
X121010000Y-39112500D02*
X121010000Y-38462500D01*
X124130000Y-37812500D02*
X124130000Y-38462500D01*
X124130000Y-39112500D02*
X124130000Y-38462500D01*
X121060000Y-37300000D02*
X120730000Y-37540000D01*
X120730000Y-37060000D01*
X121060000Y-37300000D01*
G36*
X121060000Y-37300000D02*
G01*
X120730000Y-37540000D01*
X120730000Y-37060000D01*
X121060000Y-37300000D01*
G37*
%TO.C,C8*%
X151152742Y-34227500D02*
X151627258Y-34227500D01*
X151152742Y-35272500D02*
X151627258Y-35272500D01*
%TO.C,C6*%
X151152742Y-28227500D02*
X151627258Y-28227500D01*
X151152742Y-29272500D02*
X151627258Y-29272500D01*
%TO.C,C4*%
X140357500Y-46557258D02*
X140357500Y-46082742D01*
X141402500Y-46557258D02*
X141402500Y-46082742D01*
%TO.C,C3*%
X137297500Y-46477258D02*
X137297500Y-46002742D01*
X138342500Y-46477258D02*
X138342500Y-46002742D01*
%TO.C,R1*%
X151249420Y-40240000D02*
X151530580Y-40240000D01*
X151249420Y-41260000D02*
X151530580Y-41260000D01*
%TD*%
M02*
