M48
; DRILL file {KiCad 8.0.7} date 2025-02-05T17:19:38+0900
; FORMAT={-:-/ absolute / metric / decimal}
; #@! TF.CreationDate,2025-02-05T17:19:38+09:00
; #@! TF.GenerationSoftware,Kicad,Pcbnew,8.0.7
; #@! TF.FileFunction,Plated,1,2,PTH
FMAT,2
METRIC
; #@! TA.AperFunction,Plated,PTH,ViaDrill
T1C0.300
; #@! TA.AperFunction,Plated,PTH,ComponentDrill
T2C0.500
; #@! TA.AperFunction,Plated,PTH,ComponentDrill
T3C0.750
; #@! TA.AperFunction,Plated,PTH,ComponentDrill
T4C0.813
; #@! TA.AperFunction,Plated,PTH,ComponentDrill
T5C1.000
%
G90
G05
T1
X118.23Y-9.0
X118.83Y-5.25
X119.02Y-29.11
X119.03Y-57.51
X120.27Y-26.91
X120.3Y-29.16
X124.58Y-41.54
X134.64Y-43.67
X134.94Y-15.71
X135.715Y-41.285
X136.64Y-12.95
X136.64Y-27.08
X137.53Y-42.87
X137.87Y-43.68
X138.51Y-19.87
X138.57Y-7.86
X139.46Y-42.01
X139.8Y-57.54
X141.89Y-14.28
X142.05Y-45.54
X142.3Y-48.4
X142.65Y-42.12
X143.91Y-42.72
X146.152Y-33.04
X146.47Y-27.532
X147.6Y-28.28
X149.02Y-40.79
X152.21Y-39.2
X152.26Y-33.06
T3
X131.353Y-29.057
X132.243Y-39.757
X133.133Y-29.057
X134.023Y-39.757
X134.913Y-29.057
X135.803Y-39.757
X136.693Y-29.057
X137.583Y-39.757
X138.473Y-29.057
X139.363Y-39.757
X140.253Y-29.057
X141.143Y-39.757
X142.033Y-29.057
X142.923Y-39.757
X143.813Y-29.057
X144.703Y-39.757
T4
X129.87Y-2.774
X129.87Y-5.314
X129.87Y-7.854
X129.87Y-10.394
X129.87Y-12.934
X129.87Y-15.474
X129.87Y-18.014
X145.11Y-2.774
X145.11Y-5.314
X145.11Y-7.854
X145.11Y-10.394
X145.11Y-12.934
X145.11Y-15.474
X145.11Y-18.014
X150.53Y-14.87
X153.07Y-14.87
T5
X131.775Y-19.706
X133.655Y-19.706
X141.935Y-8.172
X141.935Y-10.077
T2
G00X149.6Y-2.554
M15
G01X149.9Y-2.554
M16
G05
G00X152.1Y-2.554
M15
G01X152.4Y-2.554
M16
G05
G00X154.6Y-2.554
M15
G01X154.9Y-2.554
M16
G05
M30
