  0
SECTION
  2
HEADER
  9
$ANGBASE
  50
0.0
  9
$ANGDIR
  70
1
  9
$MEASUREMENT
  70
0
  0
ENDSEC
  0
SECTION
  2
TABLES
  0
TABLE
  2
LTYPE
  70
4
  0
LTYPE
  5
40F
  2
CONTINUOUS
  70
0
  3
Solid line
  72
65
  73
0
  40
0.0
  0
LTYPE
  5
410
  2
DASHDOT
 70
0
  3
Dash Dot ____ _ ____ _
 72
65
 73
4
 40
2.0
 49
1.25
 49
-0.25
 49
0.25
 49
-0.25
  0
LTYPE
  5
411
  2
DASHED
 70
0
  3
Dashed __ __ __ __ __
 72
65
 73
2
 40
0.75
 49
0.5
 49
-0.25
  0
LTYPE
  5
43B
  2
DOTTED
 70
0
  3
Dotted .  .  .  .
 72
65
 73
2
 40
0.2
 49
0.0
 49
-0.2
  0
ENDTAB
  0
TABLE
  2
STYLE
  70
4
  0
STYLE
  2
KICAD
  70
0
  40
0
  41
1
  42
1
  50
0
  71
0
  3
isocp.shx
  0
STYLE
  2
KICADB
  70
0
  40
0
  41
1
  42
1
  50
0
  71
0
  3
isocp.shx
  0
STYLE
  2
KICADI
  70
0
  40
0
  41
1
  42
1
  50
15
  71
0
  3
isocp.shx
  0
STYLE
  2
KICADBI
  70
0
  40
0
  41
1
  42
1
  50
15
  71
0
  3
isocp.shx
  0
ENDTAB
  0
TABLE
  2
LAYER
  70
1
  0
LAYER
  2
BLACK
  70
0
  62
7
  6
CONTINUOUS
  0
ENDTAB
  0
ENDSEC
  0
SECTION
  2
ENTITIES
0
LINE
8
BLACK
6
CONTINUOUS
10
12.4416484645669296
20
-1.0140923622047244
11
12.4492699212598428
21
-1.0170449212598425
0
LINE
8
BLACK
6
CONTINUOUS
10
12.4492699212598428
20
-1.0170449212598425
11
12.45621905511811
21
-1.0213476771653542
0
LINE
8
BLACK
6
CONTINUOUS
10
12.45621905511811
20
-1.0213476771653542
11
12.4622592519685043
21
-1.0268540157480315
0
LINE
8
BLACK
6
CONTINUOUS
10
12.4622592519685043
20
-1.0268540157480315
11
12.4671848031496069
21
-1.0333765354330708
0
LINE
8
BLACK
6
CONTINUOUS
10
12.4671848031496069
20
-1.0333765354330708
11
12.4708279921259848
21
-1.040693031496063
0
LINE
8
BLACK
6
CONTINUOUS
10
12.4708279921259848
20
-1.040693031496063
11
12.4730647637795276
21
-1.0485544094488188
0
LINE
8
BLACK
6
CONTINUOUS
10
12.4730647637795276
20
-1.0485544094488188
11
12.4738188976377948
21
-1.0566929133858267
0
LINE
8
BLACK
6
CONTINUOUS
10
12.4738188976377948
20
-1.0566929133858267
11
12.4730647637795276
21
-1.0648314173228346
0
LINE
8
BLACK
6
CONTINUOUS
10
12.4730647637795276
20
-1.0648314173228346
11
12.4708279921259848
21
-1.0726927952755905
0
LINE
8
BLACK
6
CONTINUOUS
10
12.4708279921259848
20
-1.0726927952755905
11
12.4671848031496069
21
-1.0800092913385826
0
LINE
8
BLACK
6
CONTINUOUS
10
12.4671848031496069
20
-1.0800092913385826
11
12.4622592519685043
21
-1.086531811023622
0
LINE
8
BLACK
6
CONTINUOUS
10
12.4622592519685043
20
-1.086531811023622
11
12.45621905511811
21
-1.0920381496062992
0
LINE
8
BLACK
6
CONTINUOUS
10
12.45621905511811
20
-1.0920381496062992
11
12.4492699212598428
21
-1.096340905511811
0
LINE
8
BLACK
6
CONTINUOUS
10
12.4492699212598428
20
-1.096340905511811
11
12.4416484645669296
21
-1.099293464566929
0
LINE
8
BLACK
6
CONTINUOUS
10
12.4416484645669296
20
-1.099293464566929
11
12.4336142519685033
21
-1.10079531496063
0
LINE
8
BLACK
6
CONTINUOUS
10
12.4336142519685033
20
-1.10079531496063
11
12.4254408661417326
21
-1.10079531496063
0
LINE
8
BLACK
6
CONTINUOUS
10
12.4254408661417326
20
-1.10079531496063
11
12.4174066535433063
21
-1.099293464566929
0
LINE
8
BLACK
6
CONTINUOUS
10
12.4174066535433063
20
-1.099293464566929
11
12.4097851968503932
21
-1.096340905511811
0
LINE
8
BLACK
6
CONTINUOUS
10
12.4097851968503932
20
-1.096340905511811
11
12.4028360629921259
21
-1.0920381496062992
0
LINE
8
BLACK
6
CONTINUOUS
10
12.4028360629921259
20
-1.0920381496062992
11
12.3967958661417317
21
-1.086531811023622
0
LINE
8
BLACK
6
CONTINUOUS
10
12.3967958661417317
20
-1.086531811023622
11
12.3918703149606291
21
-1.0800092913385826
0
LINE
8
BLACK
6
CONTINUOUS
10
12.3918703149606291
20
-1.0800092913385826
11
12.3882271259842511
21
-1.0726927952755905
0
LINE
8
BLACK
6
CONTINUOUS
10
12.3882271259842511
20
-1.0726927952755905
11
12.3859903543307084
21
-1.0648314173228346
0
LINE
8
BLACK
6
CONTINUOUS
10
12.3859903543307084
20
-1.0648314173228346
11
12.3852362204724411
21
-1.0566929133858267
0
LINE
8
BLACK
6
CONTINUOUS
10
12.3852362204724411
20
-1.0566929133858267
11
12.3859903543307084
21
-1.0485544094488188
0
LINE
8
BLACK
6
CONTINUOUS
10
12.3859903543307084
20
-1.0485544094488188
11
12.3882271259842511
21
-1.040693031496063
0
LINE
8
BLACK
6
CONTINUOUS
10
12.3882271259842511
20
-1.040693031496063
11
12.3918703149606291
21
-1.0333765354330708
0
LINE
8
BLACK
6
CONTINUOUS
10
12.3918703149606291
20
-1.0333765354330708
11
12.3967958661417317
21
-1.0268540157480315
0
LINE
8
BLACK
6
CONTINUOUS
10
12.3967958661417317
20
-1.0268540157480315
11
12.4028360629921259
21
-1.0213476771653542
0
LINE
8
BLACK
6
CONTINUOUS
10
12.4028360629921259
20
-1.0213476771653542
11
12.4097851968503932
21
-1.0170449212598425
0
LINE
8
BLACK
6
CONTINUOUS
10
12.4097851968503932
20
-1.0170449212598425
11
12.4174066535433063
21
-1.0140923622047244
0
LINE
8
BLACK
6
CONTINUOUS
10
12.4174066535433063
20
-1.0140923622047244
11
12.4254408661417326
21
-1.0125905118110237
0
LINE
8
BLACK
6
CONTINUOUS
10
12.4254408661417326
20
-1.0125905118110237
11
12.4336142519685033
21
-1.0125905118110237
0
LINE
8
BLACK
6
CONTINUOUS
10
12.4336142519685033
20
-1.0125905118110237
11
12.4416484645669296
21
-1.0140923622047244
0
LINE
8
BLACK
6
CONTINUOUS
10
12.3877471259842515
20
-1.0645030314960631
11
12.3898936220472446
21
-1.0720471653543306
0
LINE
8
BLACK
6
CONTINUOUS
10
12.3898936220472446
20
-1.0720471653543306
11
12.3933898031496064
21
-1.0790684645669291
0
LINE
8
BLACK
6
CONTINUOUS
10
12.3933898031496064
20
-1.0790684645669291
11
12.3981166141732277
21
-1.0853277559055119
0
LINE
8
BLACK
6
CONTINUOUS
10
12.3981166141732277
20
-1.0853277559055119
11
12.4039131102362195
21
-1.0906119291338583
0
LINE
8
BLACK
6
CONTINUOUS
10
12.4039131102362195
20
-1.0906119291338583
11
12.4105818503937009
21
-1.0947410629921259
0
LINE
8
BLACK
6
CONTINUOUS
10
12.4105818503937009
20
-1.0947410629921259
11
12.417895748031496
21
-1.0975744881889764
0
LINE
8
BLACK
6
CONTINUOUS
10
12.417895748031496
20
-1.0975744881889764
11
12.4256057874015742
21
-1.0990157480314959
0
LINE
8
BLACK
6
CONTINUOUS
10
12.4256057874015742
20
-1.0990157480314959
11
12.4334493307086618
21
-1.0990157480314959
0
LINE
8
BLACK
6
CONTINUOUS
10
12.4334493307086618
20
-1.0990157480314959
11
12.44115937007874
21
-1.0975744881889764
0
LINE
8
BLACK
6
CONTINUOUS
10
12.44115937007874
20
-1.0975744881889764
11
12.4484732677165351
21
-1.0947410629921259
0
LINE
8
BLACK
6
CONTINUOUS
10
12.4484732677165351
20
-1.0947410629921259
11
12.4551420078740147
21
-1.0906119291338583
0
LINE
8
BLACK
6
CONTINUOUS
10
12.4551420078740147
20
-1.0906119291338583
11
12.4609385039370082
21
-1.0853277559055119
0
LINE
8
BLACK
6
CONTINUOUS
10
12.4609385039370082
20
-1.0853277559055119
11
12.4656653149606296
21
-1.0790684645669291
0
LINE
8
BLACK
6
CONTINUOUS
10
12.4656653149606296
20
-1.0790684645669291
11
12.4691614960629913
21
-1.0720471653543306
0
LINE
8
BLACK
6
CONTINUOUS
10
12.4691614960629913
20
-1.0720471653543306
11
12.4713079921259844
21
-1.0645030314960631
0
LINE
8
BLACK
6
CONTINUOUS
10
12.4713079921259844
20
-1.0645030314960631
11
12.4720316929133848
21
-1.0566929133858267
0
LINE
8
BLACK
6
CONTINUOUS
10
12.4720316929133848
20
-1.0566929133858267
11
12.4713079921259844
21
-1.0488827952755906
0
LINE
8
BLACK
6
CONTINUOUS
10
12.4713079921259844
20
-1.0488827952755906
11
12.4691614960629913
21
-1.0413386614173228
0
LINE
8
BLACK
6
CONTINUOUS
10
12.4691614960629913
20
-1.0413386614173228
11
12.4656653149606296
21
-1.0343173622047244
0
LINE
8
BLACK
6
CONTINUOUS
10
12.4656653149606296
20
-1.0343173622047244
11
12.4609385039370082
21
-1.0280580708661418
0
LINE
8
BLACK
6
CONTINUOUS
10
12.4609385039370082
20
-1.0280580708661418
11
12.4551420078740147
21
-1.0227738976377954
0
LINE
8
BLACK
6
CONTINUOUS
10
12.4551420078740147
20
-1.0227738976377954
11
12.4484732677165351
21
-1.0186447637795275
0
LINE
8
BLACK
6
CONTINUOUS
10
12.4484732677165351
20
-1.0186447637795275
11
12.44115937007874
21
-1.0158113385826772
0
LINE
8
BLACK
6
CONTINUOUS
10
12.44115937007874
20
-1.0158113385826772
11
12.4334493307086618
21
-1.0143700787401575
0
LINE
8
BLACK
6
CONTINUOUS
10
12.4334493307086618
20
-1.0143700787401575
11
12.4256057874015742
21
-1.0143700787401575
0
LINE
8
BLACK
6
CONTINUOUS
10
12.4256057874015742
20
-1.0143700787401575
11
12.417895748031496
21
-1.0158113385826772
0
LINE
8
BLACK
6
CONTINUOUS
10
12.417895748031496
20
-1.0158113385826772
11
12.4105818503937009
21
-1.0186447637795275
0
LINE
8
BLACK
6
CONTINUOUS
10
12.4105818503937009
20
-1.0186447637795275
11
12.4039131102362195
21
-1.0227738976377954
0
LINE
8
BLACK
6
CONTINUOUS
10
12.4039131102362195
20
-1.0227738976377954
11
12.3981166141732277
21
-1.0280580708661418
0
LINE
8
BLACK
6
CONTINUOUS
10
12.3981166141732277
20
-1.0280580708661418
11
12.3933898031496064
21
-1.0343173622047244
0
LINE
8
BLACK
6
CONTINUOUS
10
12.3933898031496064
20
-1.0343173622047244
11
12.3898936220472446
21
-1.0413386614173228
0
LINE
8
BLACK
6
CONTINUOUS
10
12.3898936220472446
20
-1.0413386614173228
11
12.3877471259842515
21
-1.0488827952755906
0
LINE
8
BLACK
6
CONTINUOUS
10
12.3877471259842515
20
-1.0488827952755906
11
12.3870234251968494
21
-1.0566929133858267
0
LINE
8
BLACK
6
CONTINUOUS
10
12.3870234251968494
20
-1.0566929133858267
11
12.3877471259842515
21
-1.0645030314960631
0
LINE
8
BLACK
6
CONTINUOUS
10
13.6219634251968493
20
-1.0140923622047244
11
13.6295848818897642
21
-1.0170449212598425
0
LINE
8
BLACK
6
CONTINUOUS
10
13.6295848818897642
20
-1.0170449212598425
11
13.6365340157480315
21
-1.0213476771653542
0
LINE
8
BLACK
6
CONTINUOUS
10
13.6365340157480315
20
-1.0213476771653542
11
13.6425742125984257
21
-1.0268540157480315
0
LINE
8
BLACK
6
CONTINUOUS
10
13.6425742125984257
20
-1.0268540157480315
11
13.6474997637795266
21
-1.0333765354330708
0
LINE
8
BLACK
6
CONTINUOUS
10
13.6474997637795266
20
-1.0333765354330708
11
13.6511429527559045
21
-1.040693031496063
0
LINE
8
BLACK
6
CONTINUOUS
10
13.6511429527559045
20
-1.040693031496063
11
13.653379724409449
21
-1.0485544094488188
0
LINE
8
BLACK
6
CONTINUOUS
10
13.653379724409449
20
-1.0485544094488188
11
13.6541338582677163
21
-1.0566929133858267
0
LINE
8
BLACK
6
CONTINUOUS
10
13.6541338582677163
20
-1.0566929133858267
11
13.653379724409449
21
-1.0648314173228346
0
LINE
8
BLACK
6
CONTINUOUS
10
13.653379724409449
20
-1.0648314173228346
11
13.6511429527559045
21
-1.0726927952755905
0
LINE
8
BLACK
6
CONTINUOUS
10
13.6511429527559045
20
-1.0726927952755905
11
13.6474997637795266
21
-1.0800092913385826
0
LINE
8
BLACK
6
CONTINUOUS
10
13.6474997637795266
20
-1.0800092913385826
11
13.6425742125984257
21
-1.086531811023622
0
LINE
8
BLACK
6
CONTINUOUS
10
13.6425742125984257
20
-1.086531811023622
11
13.6365340157480315
21
-1.0920381496062992
0
LINE
8
BLACK
6
CONTINUOUS
10
13.6365340157480315
20
-1.0920381496062992
11
13.6295848818897642
21
-1.096340905511811
0
LINE
8
BLACK
6
CONTINUOUS
10
13.6295848818897642
20
-1.096340905511811
11
13.6219634251968493
21
-1.099293464566929
0
LINE
8
BLACK
6
CONTINUOUS
10
13.6219634251968493
20
-1.099293464566929
11
13.6139292125984248
21
-1.10079531496063
0
LINE
8
BLACK
6
CONTINUOUS
10
13.6139292125984248
20
-1.10079531496063
11
13.6057558267716541
21
-1.10079531496063
0
LINE
8
BLACK
6
CONTINUOUS
10
13.6057558267716541
20
-1.10079531496063
11
13.5977216141732278
21
-1.099293464566929
0
LINE
8
BLACK
6
CONTINUOUS
10
13.5977216141732278
20
-1.099293464566929
11
13.5901001574803146
21
-1.096340905511811
0
LINE
8
BLACK
6
CONTINUOUS
10
13.5901001574803146
20
-1.096340905511811
11
13.5831510236220474
21
-1.0920381496062992
0
LINE
8
BLACK
6
CONTINUOUS
10
13.5831510236220474
20
-1.0920381496062992
11
13.5771108267716532
21
-1.086531811023622
0
LINE
8
BLACK
6
CONTINUOUS
10
13.5771108267716532
20
-1.086531811023622
11
13.5721852755905505
21
-1.0800092913385826
0
LINE
8
BLACK
6
CONTINUOUS
10
13.5721852755905505
20
-1.0800092913385826
11
13.5685420866141726
21
-1.0726927952755905
0
LINE
8
BLACK
6
CONTINUOUS
10
13.5685420866141726
20
-1.0726927952755905
11
13.5663053149606299
21
-1.0648314173228346
0
LINE
8
BLACK
6
CONTINUOUS
10
13.5663053149606299
20
-1.0648314173228346
11
13.5655511811023626
21
-1.0566929133858267
0
LINE
8
BLACK
6
CONTINUOUS
10
13.5655511811023626
20
-1.0566929133858267
11
13.5663053149606299
21
-1.0485544094488188
0
LINE
8
BLACK
6
CONTINUOUS
10
13.5663053149606299
20
-1.0485544094488188
11
13.5685420866141726
21
-1.040693031496063
0
LINE
8
BLACK
6
CONTINUOUS
10
13.5685420866141726
20
-1.040693031496063
11
13.5721852755905505
21
-1.0333765354330708
0
LINE
8
BLACK
6
CONTINUOUS
10
13.5721852755905505
20
-1.0333765354330708
11
13.5771108267716532
21
-1.0268540157480315
0
LINE
8
BLACK
6
CONTINUOUS
10
13.5771108267716532
20
-1.0268540157480315
11
13.5831510236220474
21
-1.0213476771653542
0
LINE
8
BLACK
6
CONTINUOUS
10
13.5831510236220474
20
-1.0213476771653542
11
13.5901001574803146
21
-1.0170449212598425
0
LINE
8
BLACK
6
CONTINUOUS
10
13.5901001574803146
20
-1.0170449212598425
11
13.5977216141732278
21
-1.0140923622047244
0
LINE
8
BLACK
6
CONTINUOUS
10
13.5977216141732278
20
-1.0140923622047244
11
13.6057558267716541
21
-1.0125905118110237
0
LINE
8
BLACK
6
CONTINUOUS
10
13.6057558267716541
20
-1.0125905118110237
11
13.6139292125984248
21
-1.0125905118110237
0
LINE
8
BLACK
6
CONTINUOUS
10
13.6139292125984248
20
-1.0125905118110237
11
13.6219634251968493
21
-1.0140923622047244
0
LINE
8
BLACK
6
CONTINUOUS
10
13.568062086614173
20
-1.0645030314960631
11
13.5702085826771643
21
-1.0720471653543306
0
LINE
8
BLACK
6
CONTINUOUS
10
13.5702085826771643
20
-1.0720471653543306
11
13.5737047637795278
21
-1.0790684645669291
0
LINE
8
BLACK
6
CONTINUOUS
10
13.5737047637795278
20
-1.0790684645669291
11
13.5784315748031492
21
-1.0853277559055119
0
LINE
8
BLACK
6
CONTINUOUS
10
13.5784315748031492
20
-1.0853277559055119
11
13.5842280708661409
21
-1.0906119291338583
0
LINE
8
BLACK
6
CONTINUOUS
10
13.5842280708661409
20
-1.0906119291338583
11
13.5908968110236223
21
-1.0947410629921259
0
LINE
8
BLACK
6
CONTINUOUS
10
13.5908968110236223
20
-1.0947410629921259
11
13.5982107086614175
21
-1.0975744881889764
0
LINE
8
BLACK
6
CONTINUOUS
10
13.5982107086614175
20
-1.0975744881889764
11
13.6059207480314956
21
-1.0990157480314959
0
LINE
8
BLACK
6
CONTINUOUS
10
13.6059207480314956
20
-1.0990157480314959
11
13.6137642913385832
21
-1.0990157480314959
0
LINE
8
BLACK
6
CONTINUOUS
10
13.6137642913385832
20
-1.0990157480314959
11
13.6214743307086614
21
-1.0975744881889764
0
LINE
8
BLACK
6
CONTINUOUS
10
13.6214743307086614
20
-1.0975744881889764
11
13.6287882283464565
21
-1.0947410629921259
0
LINE
8
BLACK
6
CONTINUOUS
10
13.6287882283464565
20
-1.0947410629921259
11
13.6354569685039362
21
-1.0906119291338583
0
LINE
8
BLACK
6
CONTINUOUS
10
13.6354569685039362
20
-1.0906119291338583
11
13.6412534645669297
21
-1.0853277559055119
0
LINE
8
BLACK
6
CONTINUOUS
10
13.6412534645669297
20
-1.0853277559055119
11
13.645980275590551
21
-1.0790684645669291
0
LINE
8
BLACK
6
CONTINUOUS
10
13.645980275590551
20
-1.0790684645669291
11
13.6494764566929128
21
-1.0720471653543306
0
LINE
8
BLACK
6
CONTINUOUS
10
13.6494764566929128
20
-1.0720471653543306
11
13.6516229527559059
21
-1.0645030314960631
0
LINE
8
BLACK
6
CONTINUOUS
10
13.6516229527559059
20
-1.0645030314960631
11
13.6523466535433062
21
-1.0566929133858267
0
LINE
8
BLACK
6
CONTINUOUS
10
13.6523466535433062
20
-1.0566929133858267
11
13.6516229527559059
21
-1.0488827952755906
0
LINE
8
BLACK
6
CONTINUOUS
10
13.6516229527559059
20
-1.0488827952755906
11
13.6494764566929128
21
-1.0413386614173228
0
LINE
8
BLACK
6
CONTINUOUS
10
13.6494764566929128
20
-1.0413386614173228
11
13.645980275590551
21
-1.0343173622047244
0
LINE
8
BLACK
6
CONTINUOUS
10
13.645980275590551
20
-1.0343173622047244
11
13.6412534645669297
21
-1.0280580708661418
0
LINE
8
BLACK
6
CONTINUOUS
10
13.6412534645669297
20
-1.0280580708661418
11
13.6354569685039362
21
-1.0227738976377954
0
LINE
8
BLACK
6
CONTINUOUS
10
13.6354569685039362
20
-1.0227738976377954
11
13.6287882283464565
21
-1.0186447637795275
0
LINE
8
BLACK
6
CONTINUOUS
10
13.6287882283464565
20
-1.0186447637795275
11
13.6214743307086614
21
-1.0158113385826772
0
LINE
8
BLACK
6
CONTINUOUS
10
13.6214743307086614
20
-1.0158113385826772
11
13.6137642913385832
21
-1.0143700787401575
0
LINE
8
BLACK
6
CONTINUOUS
10
13.6137642913385832
20
-1.0143700787401575
11
13.6059207480314956
21
-1.0143700787401575
0
LINE
8
BLACK
6
CONTINUOUS
10
13.6059207480314956
20
-1.0143700787401575
11
13.5982107086614175
21
-1.0158113385826772
0
LINE
8
BLACK
6
CONTINUOUS
10
13.5982107086614175
20
-1.0158113385826772
11
13.5908968110236223
21
-1.0186447637795275
0
LINE
8
BLACK
6
CONTINUOUS
10
13.5908968110236223
20
-1.0186447637795275
11
13.5842280708661409
21
-1.0227738976377954
0
LINE
8
BLACK
6
CONTINUOUS
10
13.5842280708661409
20
-1.0227738976377954
11
13.5784315748031492
21
-1.0280580708661418
0
LINE
8
BLACK
6
CONTINUOUS
10
13.5784315748031492
20
-1.0280580708661418
11
13.5737047637795278
21
-1.0343173622047244
0
LINE
8
BLACK
6
CONTINUOUS
10
13.5737047637795278
20
-1.0343173622047244
11
13.5702085826771643
21
-1.0413386614173228
0
LINE
8
BLACK
6
CONTINUOUS
10
13.5702085826771643
20
-1.0413386614173228
11
13.568062086614173
21
-1.0488827952755906
0
LINE
8
BLACK
6
CONTINUOUS
10
13.568062086614173
20
-1.0488827952755906
11
13.5673383858267709
21
-1.0566929133858267
0
LINE
8
BLACK
6
CONTINUOUS
10
13.5673383858267709
20
-1.0566929133858267
11
13.568062086614173
21
-1.0645030314960631
0
LINE
8
BLACK
6
CONTINUOUS
10
12.6384988582677167
20
0.1969312598425197
11
12.6461203149606298
21
0.1939787007874016
0
LINE
8
BLACK
6
CONTINUOUS
10
12.6461203149606298
20
0.1939787007874016
11
12.6530694488188971
21
0.1896759448818898
0
LINE
8
BLACK
6
CONTINUOUS
10
12.6530694488188971
20
0.1896759448818898
11
12.6591096456692913
21
0.1841696062992126
0
LINE
8
BLACK
6
CONTINUOUS
10
12.6591096456692913
20
0.1841696062992126
11
12.6640351968503939
21
0.1776470866141732
0
LINE
8
BLACK
6
CONTINUOUS
10
12.6640351968503939
20
0.1776470866141732
11
12.6676783858267719
21
0.1703305905511811
0
LINE
8
BLACK
6
CONTINUOUS
10
12.6676783858267719
20
0.1703305905511811
11
12.6699151574803146
21
0.1624692125984252
0
LINE
8
BLACK
6
CONTINUOUS
10
12.6699151574803146
20
0.1624692125984252
11
12.6704503937007864
21
0.1566929133858268
0
LINE
8
BLACK
6
CONTINUOUS
10
12.6704503937007864
20
0.1566929133858268
11
13.3689196850393692
21
0.1566929133858268
0
LINE
8
BLACK
6
CONTINUOUS
10
13.3689196850393692
20
0.1566929133858268
11
13.3694549212598428
21
0.1624692125984252
0
LINE
8
BLACK
6
CONTINUOUS
10
13.3694549212598428
20
0.1624692125984252
11
13.3716916929133856
21
0.1703305905511811
0
LINE
8
BLACK
6
CONTINUOUS
10
13.3716916929133856
20
0.1703305905511811
11
13.3753348818897635
21
0.1776470866141732
0
LINE
8
BLACK
6
CONTINUOUS
10
13.3753348818897635
20
0.1776470866141732
11
13.3802604330708661
21
0.1841696062992126
0
LINE
8
BLACK
6
CONTINUOUS
10
13.3802604330708661
20
0.1841696062992126
11
13.3863006299212604
21
0.1896759448818898
0
LINE
8
BLACK
6
CONTINUOUS
10
13.3863006299212604
20
0.1896759448818898
11
13.3932497637795276
21
0.1939787007874016
0
LINE
8
BLACK
6
CONTINUOUS
10
13.3932497637795276
20
0.1939787007874016
11
13.4008712204724407
21
0.1969312598425197
0
LINE
8
BLACK
6
CONTINUOUS
10
13.4008712204724407
20
0.1969312598425197
11
13.4089054330708652
21
0.1984331102362205
0
LINE
8
BLACK
6
CONTINUOUS
10
13.4089054330708652
20
0.1984331102362205
11
13.4170788188976378
21
0.1984331102362205
0
LINE
8
BLACK
6
CONTINUOUS
10
13.4170788188976378
20
0.1984331102362205
11
13.4251130314960623
21
0.1969312598425197
0
LINE
8
BLACK
6
CONTINUOUS
10
13.4251130314960623
20
0.1969312598425197
11
13.4327344881889754
21
0.1939787007874016
0
LINE
8
BLACK
6
CONTINUOUS
10
13.4327344881889754
20
0.1939787007874016
11
13.4396836220472444
21
0.1896759448818898
0
LINE
8
BLACK
6
CONTINUOUS
10
13.4396836220472444
20
0.1896759448818898
11
13.4457238188976369
21
0.1841696062992126
0
LINE
8
BLACK
6
CONTINUOUS
10
13.4457238188976369
20
0.1841696062992126
11
13.4506493700787395
21
0.1776470866141732
0
LINE
8
BLACK
6
CONTINUOUS
10
13.4506493700787395
20
0.1776470866141732
11
13.4542925590551175
21
0.1703305905511811
0
LINE
8
BLACK
6
CONTINUOUS
10
13.4542925590551175
20
0.1703305905511811
11
13.456529330708662
21
0.1624692125984252
0
LINE
8
BLACK
6
CONTINUOUS
10
13.456529330708662
20
0.1624692125984252
11
13.4572834645669293
21
0.1543307086614173
0
LINE
8
BLACK
6
CONTINUOUS
10
13.4572834645669293
20
0.1543307086614173
11
13.456529330708662
21
0.1461922047244094
0
LINE
8
BLACK
6
CONTINUOUS
10
13.456529330708662
20
0.1461922047244094
11
13.4542925590551175
21
0.1383308267716535
0
LINE
8
BLACK
6
CONTINUOUS
10
13.4542925590551175
20
0.1383308267716535
11
13.4506493700787395
21
0.1310143307086614
0
LINE
8
BLACK
6
CONTINUOUS
10
13.4506493700787395
20
0.1310143307086614
11
13.4457238188976369
21
0.124491811023622
0
LINE
8
BLACK
6
CONTINUOUS
10
13.4457238188976369
20
0.124491811023622
11
13.4396836220472444
21
0.1189854724409449
0
LINE
8
BLACK
6
CONTINUOUS
10
13.4396836220472444
20
0.1189854724409449
11
13.4327344881889754
21
0.1146827165354331
0
LINE
8
BLACK
6
CONTINUOUS
10
13.4327344881889754
20
0.1146827165354331
11
13.4251130314960623
21
0.111730157480315
0
LINE
8
BLACK
6
CONTINUOUS
10
13.4251130314960623
20
0.111730157480315
11
13.4170788188976378
21
0.1102283070866142
0
LINE
8
BLACK
6
CONTINUOUS
10
13.4170788188976378
20
0.1102283070866142
11
13.4153543307086611
21
0.1102283070866142
0
LINE
8
BLACK
6
CONTINUOUS
10
13.4153543307086611
20
0.1102283070866142
11
13.4153543307086611
21
-0.5866062598425197
0
LINE
8
BLACK
6
CONTINUOUS
10
13.4153543307086611
20
-0.5866062598425197
11
13.4170788188976378
21
-0.5866062598425197
0
LINE
8
BLACK
6
CONTINUOUS
10
13.4170788188976378
20
-0.5866062598425197
11
13.4251130314960623
21
-0.5881081102362204
0
LINE
8
BLACK
6
CONTINUOUS
10
13.4251130314960623
20
-0.5881081102362204
11
13.4327344881889754
21
-0.5910606692913386
0
LINE
8
BLACK
6
CONTINUOUS
10
13.4327344881889754
20
-0.5910606692913386
11
13.4396836220472444
21
-0.5953634251968504
0
LINE
8
BLACK
6
CONTINUOUS
10
13.4396836220472444
20
-0.5953634251968504
11
13.4457238188976369
21
-0.6008697637795275
0
LINE
8
BLACK
6
CONTINUOUS
10
13.4457238188976369
20
-0.6008697637795275
11
13.4506493700787395
21
-0.6073922834645669
0
LINE
8
BLACK
6
CONTINUOUS
10
13.4506493700787395
20
-0.6073922834645669
11
13.4542925590551175
21
-0.6147087795275591
0
LINE
8
BLACK
6
CONTINUOUS
10
13.4542925590551175
20
-0.6147087795275591
11
13.456529330708662
21
-0.622570157480315
0
LINE
8
BLACK
6
CONTINUOUS
10
13.456529330708662
20
-0.622570157480315
11
13.4572834645669293
21
-0.6307086614173228
0
LINE
8
BLACK
6
CONTINUOUS
10
13.4572834645669293
20
-0.6307086614173228
11
13.456529330708662
21
-0.6388471653543307
0
LINE
8
BLACK
6
CONTINUOUS
10
13.456529330708662
20
-0.6388471653543307
11
13.4542925590551175
21
-0.6467085433070866
0
LINE
8
BLACK
6
CONTINUOUS
10
13.4542925590551175
20
-0.6467085433070866
11
13.4506493700787395
21
-0.6540250393700787
0
LINE
8
BLACK
6
CONTINUOUS
10
13.4506493700787395
20
-0.6540250393700787
11
13.4457238188976369
21
-0.6605475590551181
0
LINE
8
BLACK
6
CONTINUOUS
10
13.4457238188976369
20
-0.6605475590551181
11
13.4396836220472444
21
-0.6660538976377952
0
LINE
8
BLACK
6
CONTINUOUS
10
13.4396836220472444
20
-0.6660538976377952
11
13.4327344881889754
21
-0.6703566535433071
0
LINE
8
BLACK
6
CONTINUOUS
10
13.4327344881889754
20
-0.6703566535433071
11
13.4251130314960623
21
-0.6733092125984251
0
LINE
8
BLACK
6
CONTINUOUS
10
13.4251130314960623
20
-0.6733092125984251
11
13.4170788188976378
21
-0.674811062992126
0
LINE
8
BLACK
6
CONTINUOUS
10
13.4170788188976378
20
-0.674811062992126
11
13.4089054330708652
21
-0.674811062992126
0
LINE
8
BLACK
6
CONTINUOUS
10
13.4089054330708652
20
-0.674811062992126
11
13.4008712204724407
21
-0.6733092125984251
0
LINE
8
BLACK
6
CONTINUOUS
10
13.4008712204724407
20
-0.6733092125984251
11
13.3932497637795276
21
-0.6703566535433071
0
LINE
8
BLACK
6
CONTINUOUS
10
13.3932497637795276
20
-0.6703566535433071
11
13.3863006299212604
21
-0.6660538976377952
0
LINE
8
BLACK
6
CONTINUOUS
10
13.3863006299212604
20
-0.6660538976377952
11
13.3802604330708661
21
-0.6605475590551181
0
LINE
8
BLACK
6
CONTINUOUS
10
13.3802604330708661
20
-0.6605475590551181
11
13.3753348818897635
21
-0.6540250393700787
0
LINE
8
BLACK
6
CONTINUOUS
10
13.3753348818897635
20
-0.6540250393700787
11
13.3716916929133856
21
-0.6467085433070866
0
LINE
8
BLACK
6
CONTINUOUS
10
13.3716916929133856
20
-0.6467085433070866
11
13.3694549212598428
21
-0.6388471653543307
0
LINE
8
BLACK
6
CONTINUOUS
10
13.3694549212598428
20
-0.6388471653543307
11
13.3690655905511804
21
-0.6346456692913386
0
LINE
8
BLACK
6
CONTINUOUS
10
13.3690655905511804
20
-0.6346456692913386
11
12.6703044881889753
21
-0.6346456692913386
0
LINE
8
BLACK
6
CONTINUOUS
10
12.6703044881889753
20
-0.6346456692913386
11
12.6699151574803146
21
-0.6388471653543307
0
LINE
8
BLACK
6
CONTINUOUS
10
12.6699151574803146
20
-0.6388471653543307
11
12.6676783858267719
21
-0.6467085433070866
0
LINE
8
BLACK
6
CONTINUOUS
10
12.6676783858267719
20
-0.6467085433070866
11
12.6640351968503939
21
-0.6540250393700787
0
LINE
8
BLACK
6
CONTINUOUS
10
12.6640351968503939
20
-0.6540250393700787
11
12.6591096456692913
21
-0.6605475590551181
0
LINE
8
BLACK
6
CONTINUOUS
10
12.6591096456692913
20
-0.6605475590551181
11
12.6530694488188971
21
-0.6660538976377952
0
LINE
8
BLACK
6
CONTINUOUS
10
12.6530694488188971
20
-0.6660538976377952
11
12.6461203149606298
21
-0.6703566535433071
0
LINE
8
BLACK
6
CONTINUOUS
10
12.6461203149606298
20
-0.6703566535433071
11
12.6384988582677167
21
-0.6733092125984251
0
LINE
8
BLACK
6
CONTINUOUS
10
12.6384988582677167
20
-0.6733092125984251
11
12.6304646456692904
21
-0.674811062992126
0
LINE
8
BLACK
6
CONTINUOUS
10
12.6304646456692904
20
-0.674811062992126
11
12.6222912598425197
21
-0.674811062992126
0
LINE
8
BLACK
6
CONTINUOUS
10
12.6222912598425197
20
-0.674811062992126
11
12.6142570472440934
21
-0.6733092125984251
0
LINE
8
BLACK
6
CONTINUOUS
10
12.6142570472440934
20
-0.6733092125984251
11
12.6066355905511802
21
-0.6703566535433071
0
LINE
8
BLACK
6
CONTINUOUS
10
12.6066355905511802
20
-0.6703566535433071
11
12.599686456692913
21
-0.6660538976377952
0
LINE
8
BLACK
6
CONTINUOUS
10
12.599686456692913
20
-0.6660538976377952
11
12.5936462598425187
21
-0.6605475590551181
0
LINE
8
BLACK
6
CONTINUOUS
10
12.5936462598425187
20
-0.6605475590551181
11
12.5887207086614179
21
-0.6540250393700787
0
LINE
8
BLACK
6
CONTINUOUS
10
12.5887207086614179
20
-0.6540250393700787
11
12.58507751968504
21
-0.6467085433070866
0
LINE
8
BLACK
6
CONTINUOUS
10
12.58507751968504
20
-0.6467085433070866
11
12.5828407480314954
21
-0.6388471653543307
0
LINE
8
BLACK
6
CONTINUOUS
10
12.5828407480314954
20
-0.6388471653543307
11
12.5820866141732282
21
-0.6307086614173228
0
LINE
8
BLACK
6
CONTINUOUS
10
12.5820866141732282
20
-0.6307086614173228
11
12.5828407480314954
21
-0.622570157480315
0
LINE
8
BLACK
6
CONTINUOUS
10
12.5828407480314954
20
-0.622570157480315
11
12.58507751968504
21
-0.6147087795275591
0
LINE
8
BLACK
6
CONTINUOUS
10
12.58507751968504
20
-0.6147087795275591
11
12.5887207086614179
21
-0.6073922834645669
0
LINE
8
BLACK
6
CONTINUOUS
10
12.5887207086614179
20
-0.6073922834645669
11
12.5936462598425187
21
-0.6008697637795275
0
LINE
8
BLACK
6
CONTINUOUS
10
12.5936462598425187
20
-0.6008697637795275
11
12.599686456692913
21
-0.5953634251968504
0
LINE
8
BLACK
6
CONTINUOUS
10
12.599686456692913
20
-0.5953634251968504
11
12.6066355905511802
21
-0.5910606692913386
0
LINE
8
BLACK
6
CONTINUOUS
10
12.6066355905511802
20
-0.5910606692913386
11
12.6142570472440934
21
-0.5881081102362204
0
LINE
8
BLACK
6
CONTINUOUS
10
12.6142570472440934
20
-0.5881081102362204
11
12.6222912598425197
21
-0.5866062598425197
0
LINE
8
BLACK
6
CONTINUOUS
10
12.6222912598425197
20
-0.5866062598425197
11
12.6240157480314963
21
-0.5866062598425197
0
LINE
8
BLACK
6
CONTINUOUS
10
12.6240157480314963
20
-0.5866062598425197
11
12.6240157480314963
21
0.1102283070866142
0
LINE
8
BLACK
6
CONTINUOUS
10
12.6240157480314963
20
0.1102283070866142
11
12.6222912598425197
21
0.1102283070866142
0
LINE
8
BLACK
6
CONTINUOUS
10
12.6222912598425197
20
0.1102283070866142
11
12.6142570472440934
21
0.111730157480315
0
LINE
8
BLACK
6
CONTINUOUS
10
12.6142570472440934
20
0.111730157480315
11
12.6066355905511802
21
0.1146827165354331
0
LINE
8
BLACK
6
CONTINUOUS
10
12.6066355905511802
20
0.1146827165354331
11
12.599686456692913
21
0.1189854724409449
0
LINE
8
BLACK
6
CONTINUOUS
10
12.599686456692913
20
0.1189854724409449
11
12.5936462598425187
21
0.124491811023622
0
LINE
8
BLACK
6
CONTINUOUS
10
12.5936462598425187
20
0.124491811023622
11
12.5887207086614179
21
0.1310143307086614
0
LINE
8
BLACK
6
CONTINUOUS
10
12.5887207086614179
20
0.1310143307086614
11
12.58507751968504
21
0.1383308267716535
0
LINE
8
BLACK
6
CONTINUOUS
10
12.58507751968504
20
0.1383308267716535
11
12.5828407480314954
21
0.1461922047244094
0
LINE
8
BLACK
6
CONTINUOUS
10
12.5828407480314954
20
0.1461922047244094
11
12.5820866141732282
21
0.1543307086614173
0
LINE
8
BLACK
6
CONTINUOUS
10
12.5820866141732282
20
0.1543307086614173
11
12.5828407480314954
21
0.1624692125984252
0
LINE
8
BLACK
6
CONTINUOUS
10
12.5828407480314954
20
0.1624692125984252
11
12.58507751968504
21
0.1703305905511811
0
LINE
8
BLACK
6
CONTINUOUS
10
12.58507751968504
20
0.1703305905511811
11
12.5887207086614179
21
0.1776470866141732
0
LINE
8
BLACK
6
CONTINUOUS
10
12.5887207086614179
20
0.1776470866141732
11
12.5936462598425187
21
0.1841696062992126
0
LINE
8
BLACK
6
CONTINUOUS
10
12.5936462598425187
20
0.1841696062992126
11
12.599686456692913
21
0.1896759448818898
0
LINE
8
BLACK
6
CONTINUOUS
10
12.599686456692913
20
0.1896759448818898
11
12.6066355905511802
21
0.1939787007874016
0
LINE
8
BLACK
6
CONTINUOUS
10
12.6066355905511802
20
0.1939787007874016
11
12.6142570472440934
21
0.1969312598425197
0
LINE
8
BLACK
6
CONTINUOUS
10
12.6142570472440934
20
0.1969312598425197
11
12.6222912598425197
21
0.1984331102362205
0
LINE
8
BLACK
6
CONTINUOUS
10
12.6222912598425197
20
0.1984331102362205
11
12.6304646456692904
21
0.1984331102362205
0
LINE
8
BLACK
6
CONTINUOUS
10
12.6304646456692904
20
0.1984331102362205
11
12.6384988582677167
21
0.1969312598425197
0
LINE
8
BLACK
6
CONTINUOUS
10
13.4153543307086611
20
-0.6326771653543307
11
13.4152044881889765
21
-0.6334304724409449
0
LINE
8
BLACK
6
CONTINUOUS
10
13.4152044881889765
20
-0.6334304724409449
11
13.4141391338582672
21
-0.6344958267716535
0
LINE
8
BLACK
6
CONTINUOUS
10
13.4141391338582672
20
-0.6344958267716535
11
13.4133858267716537
21
-0.6346456692913386
0
LINE
8
BLACK
6
CONTINUOUS
10
13.4133858267716537
20
-0.6346456692913386
11
13.3708527952755905
21
-0.6346456692913386
0
LINE
8
BLACK
6
CONTINUOUS
10
13.3708527952755905
20
-0.6346456692913386
11
13.371211692913386
21
-0.6385187795275591
0
LINE
8
BLACK
6
CONTINUOUS
10
13.371211692913386
20
-0.6385187795275591
11
13.3733581889763773
21
-0.6460629133858268
0
LINE
8
BLACK
6
CONTINUOUS
10
13.3733581889763773
20
-0.6460629133858268
11
13.376854370078739
21
-0.6530842125984252
0
LINE
8
BLACK
6
CONTINUOUS
10
13.376854370078739
20
-0.6530842125984252
11
13.3815811811023622
21
-0.6593435039370079
0
LINE
8
BLACK
6
CONTINUOUS
10
13.3815811811023622
20
-0.6593435039370079
11
13.3873776771653539
21
-0.6646276771653543
0
LINE
8
BLACK
6
CONTINUOUS
10
13.3873776771653539
20
-0.6646276771653543
11
13.3940464173228335
21
-0.6687568110236221
0
LINE
8
BLACK
6
CONTINUOUS
10
13.3940464173228335
20
-0.6687568110236221
11
13.4013603149606304
21
-0.6715902362204724
0
LINE
8
BLACK
6
CONTINUOUS
10
13.4013603149606304
20
-0.6715902362204724
11
13.4090703543307086
21
-0.6730314960629921
0
LINE
8
BLACK
6
CONTINUOUS
10
13.4090703543307086
20
-0.6730314960629921
11
13.4169138976377944
21
-0.6730314960629921
0
LINE
8
BLACK
6
CONTINUOUS
10
13.4169138976377944
20
-0.6730314960629921
11
13.4246239370078744
21
-0.6715902362204724
0
LINE
8
BLACK
6
CONTINUOUS
10
13.4246239370078744
20
-0.6715902362204724
11
13.4319378346456695
21
-0.6687568110236221
0
LINE
8
BLACK
6
CONTINUOUS
10
13.4319378346456695
20
-0.6687568110236221
11
13.4386065748031491
21
-0.6646276771653543
0
LINE
8
BLACK
6
CONTINUOUS
10
13.4386065748031491
20
-0.6646276771653543
11
13.4444030708661408
21
-0.6593435039370079
0
LINE
8
BLACK
6
CONTINUOUS
10
13.4444030708661408
20
-0.6593435039370079
11
13.449129881889764
21
-0.6530842125984252
0
LINE
8
BLACK
6
CONTINUOUS
10
13.449129881889764
20
-0.6530842125984252
11
13.4526260629921257
21
-0.6460629133858268
0
LINE
8
BLACK
6
CONTINUOUS
10
13.4526260629921257
20
-0.6460629133858268
11
13.454772559055117
21
-0.6385187795275591
0
LINE
8
BLACK
6
CONTINUOUS
10
13.454772559055117
20
-0.6385187795275591
11
13.4554962598425192
21
-0.6307086614173228
0
LINE
8
BLACK
6
CONTINUOUS
10
13.4554962598425192
20
-0.6307086614173228
11
13.454772559055117
21
-0.6228985433070866
0
LINE
8
BLACK
6
CONTINUOUS
10
13.454772559055117
20
-0.6228985433070866
11
13.4526260629921257
21
-0.6153544094488189
0
LINE
8
BLACK
6
CONTINUOUS
10
13.4526260629921257
20
-0.6153544094488189
11
13.449129881889764
21
-0.6083331102362205
0
LINE
8
BLACK
6
CONTINUOUS
10
13.449129881889764
20
-0.6083331102362205
11
13.4444030708661408
21
-0.6020738188976378
0
LINE
8
BLACK
6
CONTINUOUS
10
13.4444030708661408
20
-0.6020738188976378
11
13.4386065748031491
21
-0.5967896456692914
0
LINE
8
BLACK
6
CONTINUOUS
10
13.4386065748031491
20
-0.5967896456692914
11
13.4319378346456695
21
-0.5926605118110236
0
LINE
8
BLACK
6
CONTINUOUS
10
13.4319378346456695
20
-0.5926605118110236
11
13.4246239370078744
21
-0.5898270866141733
0
LINE
8
BLACK
6
CONTINUOUS
10
13.4246239370078744
20
-0.5898270866141733
11
13.4169138976377944
21
-0.5883858267716535
0
LINE
8
BLACK
6
CONTINUOUS
10
13.4169138976377944
20
-0.5883858267716535
11
13.4153543307086611
21
-0.5883858267716535
0
LINE
8
BLACK
6
CONTINUOUS
10
13.4153543307086611
20
-0.5883858267716535
11
13.4153543307086611
21
-0.6326771653543307
0
LINE
8
BLACK
6
CONTINUOUS
10
12.6279527559055111
20
-0.6307086614173228
11
12.6688820866141736
21
-0.6307086614173228
0
LINE
8
BLACK
6
CONTINUOUS
10
12.6688820866141736
20
-0.6307086614173228
11
12.6681583858267715
21
-0.6228985433070866
0
LINE
8
BLACK
6
CONTINUOUS
10
12.6681583858267715
20
-0.6228985433070866
11
12.6660118897637801
21
-0.6153544094488189
0
LINE
8
BLACK
6
CONTINUOUS
10
12.6660118897637801
20
-0.6153544094488189
11
12.6625157086614166
21
-0.6083331102362205
0
LINE
8
BLACK
6
CONTINUOUS
10
12.6625157086614166
20
-0.6083331102362205
11
12.6577888976377952
21
-0.6020738188976378
0
LINE
8
BLACK
6
CONTINUOUS
10
12.6577888976377952
20
-0.6020738188976378
11
12.6519924015748035
21
-0.5967896456692914
0
LINE
8
BLACK
6
CONTINUOUS
10
12.6519924015748035
20
-0.5967896456692914
11
12.6453236614173221
21
-0.5926605118110236
0
LINE
8
BLACK
6
CONTINUOUS
10
12.6453236614173221
20
-0.5926605118110236
11
12.638009763779527
21
-0.5898270866141733
0
LINE
8
BLACK
6
CONTINUOUS
10
12.638009763779527
20
-0.5898270866141733
11
12.6302997244094488
21
-0.5883858267716535
0
LINE
8
BLACK
6
CONTINUOUS
10
12.6302997244094488
20
-0.5883858267716535
11
12.6279527559055111
21
-0.5883858267716535
0
LINE
8
BLACK
6
CONTINUOUS
10
12.6279527559055111
20
-0.5883858267716535
11
12.6279527559055111
21
-0.6307086614173228
0
LINE
8
BLACK
6
CONTINUOUS
10
12.6705233858267707
20
0.152755905511811
11
12.6699151574803146
21
0.1461922047244094
0
LINE
8
BLACK
6
CONTINUOUS
10
12.6699151574803146
20
0.1461922047244094
11
12.6676783858267719
21
0.1383308267716535
0
LINE
8
BLACK
6
CONTINUOUS
10
12.6676783858267719
20
0.1383308267716535
11
12.6640351968503939
21
0.1310143307086614
0
LINE
8
BLACK
6
CONTINUOUS
10
12.6640351968503939
20
0.1310143307086614
11
12.6591096456692913
21
0.124491811023622
0
LINE
8
BLACK
6
CONTINUOUS
10
12.6591096456692913
20
0.124491811023622
11
12.6530694488188971
21
0.1189854724409449
0
LINE
8
BLACK
6
CONTINUOUS
10
12.6530694488188971
20
0.1189854724409449
11
12.6461203149606298
21
0.1146827165354331
0
LINE
8
BLACK
6
CONTINUOUS
10
12.6461203149606298
20
0.1146827165354331
11
12.6384988582677167
21
0.111730157480315
0
LINE
8
BLACK
6
CONTINUOUS
10
12.6384988582677167
20
0.111730157480315
11
12.6304646456692904
21
0.1102283070866142
0
LINE
8
BLACK
6
CONTINUOUS
10
12.6304646456692904
20
0.1102283070866142
11
12.6279527559055111
21
0.1102283070866142
0
LINE
8
BLACK
6
CONTINUOUS
10
12.6279527559055111
20
0.1102283070866142
11
12.6279527559055111
21
-0.5866062598425197
0
LINE
8
BLACK
6
CONTINUOUS
10
12.6279527559055111
20
-0.5866062598425197
11
12.6304646456692904
21
-0.5866062598425197
0
LINE
8
BLACK
6
CONTINUOUS
10
12.6304646456692904
20
-0.5866062598425197
11
12.6384988582677167
21
-0.5881081102362204
0
LINE
8
BLACK
6
CONTINUOUS
10
12.6384988582677167
20
-0.5881081102362204
11
12.6461203149606298
21
-0.5910606692913386
0
LINE
8
BLACK
6
CONTINUOUS
10
12.6461203149606298
20
-0.5910606692913386
11
12.6530694488188971
21
-0.5953634251968504
0
LINE
8
BLACK
6
CONTINUOUS
10
12.6530694488188971
20
-0.5953634251968504
11
12.6591096456692913
21
-0.6008697637795275
0
LINE
8
BLACK
6
CONTINUOUS
10
12.6591096456692913
20
-0.6008697637795275
11
12.6640351968503939
21
-0.6073922834645669
0
LINE
8
BLACK
6
CONTINUOUS
10
12.6640351968503939
20
-0.6073922834645669
11
12.6676783858267719
21
-0.6147087795275591
0
LINE
8
BLACK
6
CONTINUOUS
10
12.6676783858267719
20
-0.6147087795275591
11
12.6699151574803146
21
-0.622570157480315
0
LINE
8
BLACK
6
CONTINUOUS
10
12.6699151574803146
20
-0.622570157480315
11
12.6706692913385819
21
-0.6307086614173228
0
LINE
8
BLACK
6
CONTINUOUS
10
12.6706692913385819
20
-0.6307086614173228
11
13.3687007874015737
21
-0.6307086614173228
0
LINE
8
BLACK
6
CONTINUOUS
10
13.3687007874015737
20
-0.6307086614173228
11
13.3694549212598428
21
-0.622570157480315
0
LINE
8
BLACK
6
CONTINUOUS
10
13.3694549212598428
20
-0.622570157480315
11
13.3716916929133856
21
-0.6147087795275591
0
LINE
8
BLACK
6
CONTINUOUS
10
13.3716916929133856
20
-0.6147087795275591
11
13.3753348818897635
21
-0.6073922834645669
0
LINE
8
BLACK
6
CONTINUOUS
10
13.3753348818897635
20
-0.6073922834645669
11
13.3802604330708661
21
-0.6008697637795275
0
LINE
8
BLACK
6
CONTINUOUS
10
13.3802604330708661
20
-0.6008697637795275
11
13.3863006299212604
21
-0.5953634251968504
0
LINE
8
BLACK
6
CONTINUOUS
10
13.3863006299212604
20
-0.5953634251968504
11
13.3932497637795276
21
-0.5910606692913386
0
LINE
8
BLACK
6
CONTINUOUS
10
13.3932497637795276
20
-0.5910606692913386
11
13.4008712204724407
21
-0.5881081102362204
0
LINE
8
BLACK
6
CONTINUOUS
10
13.4008712204724407
20
-0.5881081102362204
11
13.4089054330708652
21
-0.5866062598425197
0
LINE
8
BLACK
6
CONTINUOUS
10
13.4089054330708652
20
-0.5866062598425197
11
13.4114173228346445
21
-0.5866062598425197
0
LINE
8
BLACK
6
CONTINUOUS
10
13.4114173228346445
20
-0.5866062598425197
11
13.4114173228346445
21
0.1102283070866142
0
LINE
8
BLACK
6
CONTINUOUS
10
13.4114173228346445
20
0.1102283070866142
11
13.4089054330708652
21
0.1102283070866142
0
LINE
8
BLACK
6
CONTINUOUS
10
13.4089054330708652
20
0.1102283070866142
11
13.4008712204724407
21
0.111730157480315
0
LINE
8
BLACK
6
CONTINUOUS
10
13.4008712204724407
20
0.111730157480315
11
13.3932497637795276
21
0.1146827165354331
0
LINE
8
BLACK
6
CONTINUOUS
10
13.3932497637795276
20
0.1146827165354331
11
13.3863006299212604
21
0.1189854724409449
0
LINE
8
BLACK
6
CONTINUOUS
10
13.3863006299212604
20
0.1189854724409449
11
13.3802604330708661
21
0.124491811023622
0
LINE
8
BLACK
6
CONTINUOUS
10
13.3802604330708661
20
0.124491811023622
11
13.3753348818897635
21
0.1310143307086614
0
LINE
8
BLACK
6
CONTINUOUS
10
13.3753348818897635
20
0.1310143307086614
11
13.3716916929133856
21
0.1383308267716535
0
LINE
8
BLACK
6
CONTINUOUS
10
13.3716916929133856
20
0.1383308267716535
11
13.3694549212598428
21
0.1461922047244094
0
LINE
8
BLACK
6
CONTINUOUS
10
13.3694549212598428
20
0.1461922047244094
11
13.3688466929133849
21
0.152755905511811
0
LINE
8
BLACK
6
CONTINUOUS
10
13.3688466929133849
20
0.152755905511811
11
12.6705233858267707
21
0.152755905511811
0
LINE
8
BLACK
6
CONTINUOUS
10
12.6279527559055111
20
0.152755905511811
11
12.6279527559055111
21
0.112007874015748
0
LINE
8
BLACK
6
CONTINUOUS
10
12.6279527559055111
20
0.112007874015748
11
12.6302997244094488
21
0.112007874015748
0
LINE
8
BLACK
6
CONTINUOUS
10
12.6302997244094488
20
0.112007874015748
11
12.638009763779527
21
0.1134491338582677
0
LINE
8
BLACK
6
CONTINUOUS
10
12.638009763779527
20
0.1134491338582677
11
12.6453236614173221
21
0.1162825590551181
0
LINE
8
BLACK
6
CONTINUOUS
10
12.6453236614173221
20
0.1162825590551181
11
12.6519924015748035
21
0.1204116929133858
0
LINE
8
BLACK
6
CONTINUOUS
10
12.6519924015748035
20
0.1204116929133858
11
12.6577888976377952
21
0.1256958661417323
0
LINE
8
BLACK
6
CONTINUOUS
10
12.6577888976377952
20
0.1256958661417323
11
12.6625157086614166
21
0.1319551574803149
0
LINE
8
BLACK
6
CONTINUOUS
10
12.6625157086614166
20
0.1319551574803149
11
12.6660118897637801
21
0.1389764566929134
0
LINE
8
BLACK
6
CONTINUOUS
10
12.6660118897637801
20
0.1389764566929134
11
12.6681583858267715
21
0.1465205905511811
0
LINE
8
BLACK
6
CONTINUOUS
10
12.6681583858267715
20
0.1465205905511811
11
12.6687361811023624
21
0.152755905511811
0
LINE
8
BLACK
6
CONTINUOUS
10
12.6687361811023624
20
0.152755905511811
11
12.6279527559055111
21
0.152755905511811
0
LINE
8
BLACK
6
CONTINUOUS
10
13.4013603149606304
20
0.1952122834645669
11
13.3940464173228335
21
0.1923788582677165
0
LINE
8
BLACK
6
CONTINUOUS
10
13.3940464173228335
20
0.1923788582677165
11
13.3873776771653539
21
0.1882497244094488
0
LINE
8
BLACK
6
CONTINUOUS
10
13.3873776771653539
20
0.1882497244094488
11
13.3815811811023622
21
0.1829655511811024
0
LINE
8
BLACK
6
CONTINUOUS
10
13.3815811811023622
20
0.1829655511811024
11
13.376854370078739
21
0.1767062598425197
0
LINE
8
BLACK
6
CONTINUOUS
10
13.376854370078739
20
0.1767062598425197
11
13.3733581889763773
21
0.1696849606299212
0
LINE
8
BLACK
6
CONTINUOUS
10
13.3733581889763773
20
0.1696849606299212
11
13.371211692913386
21
0.1621408267716535
0
LINE
8
BLACK
6
CONTINUOUS
10
13.371211692913386
20
0.1621408267716535
11
13.3707068897637793
21
0.1566929133858268
0
LINE
8
BLACK
6
CONTINUOUS
10
13.3707068897637793
20
0.1566929133858268
11
13.4133858267716537
21
0.1566929133858268
0
LINE
8
BLACK
6
CONTINUOUS
10
13.4133858267716537
20
0.1566929133858268
11
13.4141391338582672
21
0.1565430708661417
0
LINE
8
BLACK
6
CONTINUOUS
10
13.4141391338582672
20
0.1565430708661417
11
13.4152044881889765
21
0.1554777165354331
0
LINE
8
BLACK
6
CONTINUOUS
10
13.4152044881889765
20
0.1554777165354331
11
13.4153543307086611
21
0.1547244094488189
0
LINE
8
BLACK
6
CONTINUOUS
10
13.4153543307086611
20
0.1547244094488189
11
13.4153543307086611
21
0.112007874015748
0
LINE
8
BLACK
6
CONTINUOUS
10
13.4153543307086611
20
0.112007874015748
11
13.4169138976377944
21
0.112007874015748
0
LINE
8
BLACK
6
CONTINUOUS
10
13.4169138976377944
20
0.112007874015748
11
13.4246239370078744
21
0.1134491338582677
0
LINE
8
BLACK
6
CONTINUOUS
10
13.4246239370078744
20
0.1134491338582677
11
13.4319378346456695
21
0.1162825590551181
0
LINE
8
BLACK
6
CONTINUOUS
10
13.4319378346456695
20
0.1162825590551181
11
13.4386065748031491
21
0.1204116929133858
0
LINE
8
BLACK
6
CONTINUOUS
10
13.4386065748031491
20
0.1204116929133858
11
13.4444030708661408
21
0.1256958661417323
0
LINE
8
BLACK
6
CONTINUOUS
10
13.4444030708661408
20
0.1256958661417323
11
13.449129881889764
21
0.1319551574803149
0
LINE
8
BLACK
6
CONTINUOUS
10
13.449129881889764
20
0.1319551574803149
11
13.4526260629921257
21
0.1389764566929134
0
LINE
8
BLACK
6
CONTINUOUS
10
13.4526260629921257
20
0.1389764566929134
11
13.454772559055117
21
0.1465205905511811
0
LINE
8
BLACK
6
CONTINUOUS
10
13.454772559055117
20
0.1465205905511811
11
13.4554962598425192
21
0.1543307086614173
0
LINE
8
BLACK
6
CONTINUOUS
10
13.4554962598425192
20
0.1543307086614173
11
13.454772559055117
21
0.1621408267716535
0
LINE
8
BLACK
6
CONTINUOUS
10
13.454772559055117
20
0.1621408267716535
11
13.4526260629921257
21
0.1696849606299212
0
LINE
8
BLACK
6
CONTINUOUS
10
13.4526260629921257
20
0.1696849606299212
11
13.449129881889764
21
0.1767062598425197
0
LINE
8
BLACK
6
CONTINUOUS
10
13.449129881889764
20
0.1767062598425197
11
13.4444030708661408
21
0.1829655511811024
0
LINE
8
BLACK
6
CONTINUOUS
10
13.4444030708661408
20
0.1829655511811024
11
13.4386065748031491
21
0.1882497244094488
0
LINE
8
BLACK
6
CONTINUOUS
10
13.4386065748031491
20
0.1882497244094488
11
13.4319378346456695
21
0.1923788582677165
0
LINE
8
BLACK
6
CONTINUOUS
10
13.4319378346456695
20
0.1923788582677165
11
13.4246239370078744
21
0.1952122834645669
0
LINE
8
BLACK
6
CONTINUOUS
10
13.4246239370078744
20
0.1952122834645669
11
13.4169138976377944
21
0.1966535433070866
0
LINE
8
BLACK
6
CONTINUOUS
10
13.4169138976377944
20
0.1966535433070866
11
13.4090703543307086
21
0.1966535433070866
0
LINE
8
BLACK
6
CONTINUOUS
10
13.4090703543307086
20
0.1966535433070866
11
13.4013603149606304
21
0.1952122834645669
0
LINE
8
BLACK
6
CONTINUOUS
10
13.370633897637795
20
0.152755905511811
11
13.371211692913386
21
0.1465205905511811
0
LINE
8
BLACK
6
CONTINUOUS
10
13.371211692913386
20
0.1465205905511811
11
13.3733581889763773
21
0.1389764566929134
0
LINE
8
BLACK
6
CONTINUOUS
10
13.3733581889763773
20
0.1389764566929134
11
13.376854370078739
21
0.1319551574803149
0
LINE
8
BLACK
6
CONTINUOUS
10
13.376854370078739
20
0.1319551574803149
11
13.3815811811023622
21
0.1256958661417323
0
LINE
8
BLACK
6
CONTINUOUS
10
13.3815811811023622
20
0.1256958661417323
11
13.3873776771653539
21
0.1204116929133858
0
LINE
8
BLACK
6
CONTINUOUS
10
13.3873776771653539
20
0.1204116929133858
11
13.3940464173228335
21
0.1162825590551181
0
LINE
8
BLACK
6
CONTINUOUS
10
13.3940464173228335
20
0.1162825590551181
11
13.4013603149606304
21
0.1134491338582677
0
LINE
8
BLACK
6
CONTINUOUS
10
13.4013603149606304
20
0.1134491338582677
11
13.4090703543307086
21
0.112007874015748
0
LINE
8
BLACK
6
CONTINUOUS
10
13.4090703543307086
20
0.112007874015748
11
13.4114173228346445
21
0.112007874015748
0
LINE
8
BLACK
6
CONTINUOUS
10
13.4114173228346445
20
0.112007874015748
11
13.4114173228346445
21
0.152755905511811
0
LINE
8
BLACK
6
CONTINUOUS
10
13.4114173228346445
20
0.152755905511811
11
13.370633897637795
21
0.152755905511811
0
LINE
8
BLACK
6
CONTINUOUS
10
12.5845975196850386
20
-0.6385187795275591
11
12.5867440157480317
21
-0.6460629133858268
0
LINE
8
BLACK
6
CONTINUOUS
10
12.5867440157480317
20
-0.6460629133858268
11
12.5902401968503934
21
-0.6530842125984252
0
LINE
8
BLACK
6
CONTINUOUS
10
12.5902401968503934
20
-0.6530842125984252
11
12.5949670078740148
21
-0.6593435039370079
0
LINE
8
BLACK
6
CONTINUOUS
10
12.5949670078740148
20
-0.6593435039370079
11
12.6007635039370083
21
-0.6646276771653543
0
LINE
8
BLACK
6
CONTINUOUS
10
12.6007635039370083
20
-0.6646276771653543
11
12.6074322440944879
21
-0.6687568110236221
0
LINE
8
BLACK
6
CONTINUOUS
10
12.6074322440944879
20
-0.6687568110236221
11
12.614746141732283
21
-0.6715902362204724
0
LINE
8
BLACK
6
CONTINUOUS
10
12.614746141732283
20
-0.6715902362204724
11
12.6224561811023612
21
-0.6730314960629921
0
LINE
8
BLACK
6
CONTINUOUS
10
12.6224561811023612
20
-0.6730314960629921
11
12.6302997244094488
21
-0.6730314960629921
0
LINE
8
BLACK
6
CONTINUOUS
10
12.6302997244094488
20
-0.6730314960629921
11
12.638009763779527
21
-0.6715902362204724
0
LINE
8
BLACK
6
CONTINUOUS
10
12.638009763779527
20
-0.6715902362204724
11
12.6453236614173221
21
-0.6687568110236221
0
LINE
8
BLACK
6
CONTINUOUS
10
12.6453236614173221
20
-0.6687568110236221
11
12.6519924015748035
21
-0.6646276771653543
0
LINE
8
BLACK
6
CONTINUOUS
10
12.6519924015748035
20
-0.6646276771653543
11
12.6577888976377952
21
-0.6593435039370079
0
LINE
8
BLACK
6
CONTINUOUS
10
12.6577888976377952
20
-0.6593435039370079
11
12.6625157086614166
21
-0.6530842125984252
0
LINE
8
BLACK
6
CONTINUOUS
10
12.6625157086614166
20
-0.6530842125984252
11
12.6660118897637801
21
-0.6460629133858268
0
LINE
8
BLACK
6
CONTINUOUS
10
12.6660118897637801
20
-0.6460629133858268
11
12.6681583858267715
21
-0.6385187795275591
0
LINE
8
BLACK
6
CONTINUOUS
10
12.6681583858267715
20
-0.6385187795275591
11
12.668517283464567
21
-0.6346456692913386
0
LINE
8
BLACK
6
CONTINUOUS
10
12.668517283464567
20
-0.6346456692913386
11
12.6259842519685037
21
-0.6346456692913386
0
LINE
8
BLACK
6
CONTINUOUS
10
12.6259842519685037
20
-0.6346456692913386
11
12.6252309448818902
21
-0.6344958267716535
0
LINE
8
BLACK
6
CONTINUOUS
10
12.6252309448818902
20
-0.6344958267716535
11
12.6241655905511809
21
-0.6334304724409449
0
LINE
8
BLACK
6
CONTINUOUS
10
12.6241655905511809
20
-0.6334304724409449
11
12.6240157480314963
21
-0.6326771653543307
0
LINE
8
BLACK
6
CONTINUOUS
10
12.6240157480314963
20
-0.6326771653543307
11
12.6240157480314963
21
-0.5883858267716535
0
LINE
8
BLACK
6
CONTINUOUS
10
12.6240157480314963
20
-0.5883858267716535
11
12.6224561811023612
21
-0.5883858267716535
0
LINE
8
BLACK
6
CONTINUOUS
10
12.6224561811023612
20
-0.5883858267716535
11
12.614746141732283
21
-0.5898270866141733
0
LINE
8
BLACK
6
CONTINUOUS
10
12.614746141732283
20
-0.5898270866141733
11
12.6074322440944879
21
-0.5926605118110236
0
LINE
8
BLACK
6
CONTINUOUS
10
12.6074322440944879
20
-0.5926605118110236
11
12.6007635039370083
21
-0.5967896456692914
0
LINE
8
BLACK
6
CONTINUOUS
10
12.6007635039370083
20
-0.5967896456692914
11
12.5949670078740148
21
-0.6020738188976378
0
LINE
8
BLACK
6
CONTINUOUS
10
12.5949670078740148
20
-0.6020738188976378
11
12.5902401968503934
21
-0.6083331102362205
0
LINE
8
BLACK
6
CONTINUOUS
10
12.5902401968503934
20
-0.6083331102362205
11
12.5867440157480317
21
-0.6153544094488189
0
LINE
8
BLACK
6
CONTINUOUS
10
12.5867440157480317
20
-0.6153544094488189
11
12.5845975196850386
21
-0.6228985433070866
0
LINE
8
BLACK
6
CONTINUOUS
10
12.5845975196850386
20
-0.6228985433070866
11
12.5838738188976382
21
-0.6307086614173228
0
LINE
8
BLACK
6
CONTINUOUS
10
12.5838738188976382
20
-0.6307086614173228
11
12.5845975196850386
21
-0.6385187795275591
0
LINE
8
BLACK
6
CONTINUOUS
10
13.4114173228346445
20
-0.5883858267716535
11
13.4090703543307086
21
-0.5883858267716535
0
LINE
8
BLACK
6
CONTINUOUS
10
13.4090703543307086
20
-0.5883858267716535
11
13.4013603149606304
21
-0.5898270866141733
0
LINE
8
BLACK
6
CONTINUOUS
10
13.4013603149606304
20
-0.5898270866141733
11
13.3940464173228335
21
-0.5926605118110236
0
LINE
8
BLACK
6
CONTINUOUS
10
13.3940464173228335
20
-0.5926605118110236
11
13.3873776771653539
21
-0.5967896456692914
0
LINE
8
BLACK
6
CONTINUOUS
10
13.3873776771653539
20
-0.5967896456692914
11
13.3815811811023622
21
-0.6020738188976378
0
LINE
8
BLACK
6
CONTINUOUS
10
13.3815811811023622
20
-0.6020738188976378
11
13.376854370078739
21
-0.6083331102362205
0
LINE
8
BLACK
6
CONTINUOUS
10
13.376854370078739
20
-0.6083331102362205
11
13.3733581889763773
21
-0.6153544094488189
0
LINE
8
BLACK
6
CONTINUOUS
10
13.3733581889763773
20
-0.6153544094488189
11
13.371211692913386
21
-0.6228985433070866
0
LINE
8
BLACK
6
CONTINUOUS
10
13.371211692913386
20
-0.6228985433070866
11
13.3704879921259838
21
-0.6307086614173228
0
LINE
8
BLACK
6
CONTINUOUS
10
13.3704879921259838
20
-0.6307086614173228
11
13.4114173228346445
21
-0.6307086614173228
0
LINE
8
BLACK
6
CONTINUOUS
10
13.4114173228346445
20
-0.6307086614173228
11
13.4114173228346445
21
-0.5883858267716535
0
LINE
8
BLACK
6
CONTINUOUS
10
12.5845975196850386
20
0.1465205905511811
11
12.5867440157480317
21
0.1389764566929134
0
LINE
8
BLACK
6
CONTINUOUS
10
12.5867440157480317
20
0.1389764566929134
11
12.5902401968503934
21
0.1319551574803149
0
LINE
8
BLACK
6
CONTINUOUS
10
12.5902401968503934
20
0.1319551574803149
11
12.5949670078740148
21
0.1256958661417323
0
LINE
8
BLACK
6
CONTINUOUS
10
12.5949670078740148
20
0.1256958661417323
11
12.6007635039370083
21
0.1204116929133858
0
LINE
8
BLACK
6
CONTINUOUS
10
12.6007635039370083
20
0.1204116929133858
11
12.6074322440944879
21
0.1162825590551181
0
LINE
8
BLACK
6
CONTINUOUS
10
12.6074322440944879
20
0.1162825590551181
11
12.614746141732283
21
0.1134491338582677
0
LINE
8
BLACK
6
CONTINUOUS
10
12.614746141732283
20
0.1134491338582677
11
12.6224561811023612
21
0.112007874015748
0
LINE
8
BLACK
6
CONTINUOUS
10
12.6224561811023612
20
0.112007874015748
11
12.6240157480314963
21
0.112007874015748
0
LINE
8
BLACK
6
CONTINUOUS
10
12.6240157480314963
20
0.112007874015748
11
12.6240157480314963
21
0.1547244094488189
0
LINE
8
BLACK
6
CONTINUOUS
10
12.6240157480314963
20
0.1547244094488189
11
12.6241655905511809
21
0.1554777165354331
0
LINE
8
BLACK
6
CONTINUOUS
10
12.6241655905511809
20
0.1554777165354331
11
12.6252309448818902
21
0.1565430708661417
0
LINE
8
BLACK
6
CONTINUOUS
10
12.6252309448818902
20
0.1565430708661417
11
12.6259842519685037
21
0.1566929133858268
0
LINE
8
BLACK
6
CONTINUOUS
10
12.6259842519685037
20
0.1566929133858268
11
12.6686631889763781
21
0.1566929133858268
0
LINE
8
BLACK
6
CONTINUOUS
10
12.6686631889763781
20
0.1566929133858268
11
12.6681583858267715
21
0.1621408267716535
0
LINE
8
BLACK
6
CONTINUOUS
10
12.6681583858267715
20
0.1621408267716535
11
12.6660118897637801
21
0.1696849606299212
0
LINE
8
BLACK
6
CONTINUOUS
10
12.6660118897637801
20
0.1696849606299212
11
12.6625157086614166
21
0.1767062598425197
0
LINE
8
BLACK
6
CONTINUOUS
10
12.6625157086614166
20
0.1767062598425197
11
12.6577888976377952
21
0.1829655511811024
0
LINE
8
BLACK
6
CONTINUOUS
10
12.6577888976377952
20
0.1829655511811024
11
12.6519924015748035
21
0.1882497244094488
0
LINE
8
BLACK
6
CONTINUOUS
10
12.6519924015748035
20
0.1882497244094488
11
12.6453236614173221
21
0.1923788582677165
0
LINE
8
BLACK
6
CONTINUOUS
10
12.6453236614173221
20
0.1923788582677165
11
12.638009763779527
21
0.1952122834645669
0
LINE
8
BLACK
6
CONTINUOUS
10
12.638009763779527
20
0.1952122834645669
11
12.6302997244094488
21
0.1966535433070866
0
LINE
8
BLACK
6
CONTINUOUS
10
12.6302997244094488
20
0.1966535433070866
11
12.6224561811023612
21
0.1966535433070866
0
LINE
8
BLACK
6
CONTINUOUS
10
12.6224561811023612
20
0.1966535433070866
11
12.614746141732283
21
0.1952122834645669
0
LINE
8
BLACK
6
CONTINUOUS
10
12.614746141732283
20
0.1952122834645669
11
12.6074322440944879
21
0.1923788582677165
0
LINE
8
BLACK
6
CONTINUOUS
10
12.6074322440944879
20
0.1923788582677165
11
12.6007635039370083
21
0.1882497244094488
0
LINE
8
BLACK
6
CONTINUOUS
10
12.6007635039370083
20
0.1882497244094488
11
12.5949670078740148
21
0.1829655511811024
0
LINE
8
BLACK
6
CONTINUOUS
10
12.5949670078740148
20
0.1829655511811024
11
12.5902401968503934
21
0.1767062598425197
0
LINE
8
BLACK
6
CONTINUOUS
10
12.5902401968503934
20
0.1767062598425197
11
12.5867440157480317
21
0.1696849606299212
0
LINE
8
BLACK
6
CONTINUOUS
10
12.5867440157480317
20
0.1696849606299212
11
12.5845975196850386
21
0.1621408267716535
0
LINE
8
BLACK
6
CONTINUOUS
10
12.5845975196850386
20
0.1621408267716535
11
12.5838738188976382
21
0.1543307086614173
0
LINE
8
BLACK
6
CONTINUOUS
10
12.5838738188976382
20
0.1543307086614173
11
12.5845975196850386
21
0.1465205905511811
0
LINE
8
BLACK
6
CONTINUOUS
10
12.4412547637795274
20
0.8906320472440945
11
12.4488762204724406
21
0.8876794881889764
0
LINE
8
BLACK
6
CONTINUOUS
10
12.4488762204724406
20
0.8876794881889764
11
12.4558253543307078
21
0.8833767322834646
0
LINE
8
BLACK
6
CONTINUOUS
10
12.4558253543307078
20
0.8833767322834646
11
12.4618655511811021
21
0.8778703937007873
0
LINE
8
BLACK
6
CONTINUOUS
10
12.4618655511811021
20
0.8778703937007873
11
12.4667911023622047
21
0.871347874015748
0
LINE
8
BLACK
6
CONTINUOUS
10
12.4667911023622047
20
0.871347874015748
11
12.4704342913385826
21
0.8640313779527559
0
LINE
8
BLACK
6
CONTINUOUS
10
12.4704342913385826
20
0.8640313779527559
11
12.4726710629921254
21
0.85617
0
LINE
8
BLACK
6
CONTINUOUS
10
12.4726710629921254
20
0.85617
11
12.4734251968503926
21
0.8480314960629921
0
LINE
8
BLACK
6
CONTINUOUS
10
12.4734251968503926
20
0.8480314960629921
11
12.4726710629921254
21
0.8398929921259842
0
LINE
8
BLACK
6
CONTINUOUS
10
12.4726710629921254
20
0.8398929921259842
11
12.4704342913385826
21
0.8320316141732284
0
LINE
8
BLACK
6
CONTINUOUS
10
12.4704342913385826
20
0.8320316141732284
11
12.4667911023622047
21
0.8247151181102362
0
LINE
8
BLACK
6
CONTINUOUS
10
12.4667911023622047
20
0.8247151181102362
11
12.4618655511811021
21
0.8181925984251969
0
LINE
8
BLACK
6
CONTINUOUS
10
12.4618655511811021
20
0.8181925984251969
11
12.4558253543307078
21
0.8126862598425196
0
LINE
8
BLACK
6
CONTINUOUS
10
12.4558253543307078
20
0.8126862598425196
11
12.4488762204724406
21
0.8083835039370079
0
LINE
8
BLACK
6
CONTINUOUS
10
12.4488762204724406
20
0.8083835039370079
11
12.4412547637795274
21
0.8054309448818897
0
LINE
8
BLACK
6
CONTINUOUS
10
12.4412547637795274
20
0.8054309448818897
11
12.4332205511811029
21
0.8039290944881889
0
LINE
8
BLACK
6
CONTINUOUS
10
12.4332205511811029
20
0.8039290944881889
11
12.4250471653543304
21
0.8039290944881889
0
LINE
8
BLACK
6
CONTINUOUS
10
12.4250471653543304
20
0.8039290944881889
11
12.4170129527559059
21
0.8054309448818897
0
LINE
8
BLACK
6
CONTINUOUS
10
12.4170129527559059
20
0.8054309448818897
11
12.409391496062991
21
0.8083835039370079
0
LINE
8
BLACK
6
CONTINUOUS
10
12.409391496062991
20
0.8083835039370079
11
12.4024423622047237
21
0.8126862598425196
0
LINE
8
BLACK
6
CONTINUOUS
10
12.4024423622047237
20
0.8126862598425196
11
12.3964021653543313
21
0.8181925984251969
0
LINE
8
BLACK
6
CONTINUOUS
10
12.3964021653543313
20
0.8181925984251969
11
12.3914766141732287
21
0.8247151181102362
0
LINE
8
BLACK
6
CONTINUOUS
10
12.3914766141732287
20
0.8247151181102362
11
12.3878334251968507
21
0.8320316141732284
0
LINE
8
BLACK
6
CONTINUOUS
10
12.3878334251968507
20
0.8320316141732284
11
12.3855966535433062
21
0.8398929921259842
0
LINE
8
BLACK
6
CONTINUOUS
10
12.3855966535433062
20
0.8398929921259842
11
12.3848425196850389
21
0.8480314960629921
0
LINE
8
BLACK
6
CONTINUOUS
10
12.3848425196850389
20
0.8480314960629921
11
12.3855966535433062
21
0.85617
0
LINE
8
BLACK
6
CONTINUOUS
10
12.3855966535433062
20
0.85617
11
12.3878334251968507
21
0.8640313779527559
0
LINE
8
BLACK
6
CONTINUOUS
10
12.3878334251968507
20
0.8640313779527559
11
12.3914766141732287
21
0.871347874015748
0
LINE
8
BLACK
6
CONTINUOUS
10
12.3914766141732287
20
0.871347874015748
11
12.3964021653543313
21
0.8778703937007873
0
LINE
8
BLACK
6
CONTINUOUS
10
12.3964021653543313
20
0.8778703937007873
11
12.4024423622047237
21
0.8833767322834646
0
LINE
8
BLACK
6
CONTINUOUS
10
12.4024423622047237
20
0.8833767322834646
11
12.409391496062991
21
0.8876794881889764
0
LINE
8
BLACK
6
CONTINUOUS
10
12.409391496062991
20
0.8876794881889764
11
12.4170129527559059
21
0.8906320472440945
0
LINE
8
BLACK
6
CONTINUOUS
10
12.4170129527559059
20
0.8906320472440945
11
12.4250471653543304
21
0.8921338976377953
0
LINE
8
BLACK
6
CONTINUOUS
10
12.4250471653543304
20
0.8921338976377953
11
12.4332205511811029
21
0.8921338976377953
0
LINE
8
BLACK
6
CONTINUOUS
10
12.4332205511811029
20
0.8921338976377953
11
12.4412547637795274
21
0.8906320472440945
0
LINE
8
BLACK
6
CONTINUOUS
10
12.3873534251968493
20
0.8402213779527559
11
12.3894999212598425
21
0.8326772440944882
0
LINE
8
BLACK
6
CONTINUOUS
10
12.3894999212598425
20
0.8326772440944882
11
12.3929961023622042
21
0.8256559448818898
0
LINE
8
BLACK
6
CONTINUOUS
10
12.3929961023622042
20
0.8256559448818898
11
12.3977229133858273
21
0.819396653543307
0
LINE
8
BLACK
6
CONTINUOUS
10
12.3977229133858273
20
0.819396653543307
11
12.403519409448819
21
0.8141124803149606
0
LINE
8
BLACK
6
CONTINUOUS
10
12.403519409448819
20
0.8141124803149606
11
12.4101881496062987
21
0.8099833464566929
0
LINE
8
BLACK
6
CONTINUOUS
10
12.4101881496062987
20
0.8099833464566929
11
12.4175020472440938
21
0.8071499212598425
0
LINE
8
BLACK
6
CONTINUOUS
10
12.4175020472440938
20
0.8071499212598425
11
12.4252120866141738
21
0.8057086614173228
0
LINE
8
BLACK
6
CONTINUOUS
10
12.4252120866141738
20
0.8057086614173228
11
12.4330556299212596
21
0.8057086614173228
0
LINE
8
BLACK
6
CONTINUOUS
10
12.4330556299212596
20
0.8057086614173228
11
12.4407656692913378
21
0.8071499212598425
0
LINE
8
BLACK
6
CONTINUOUS
10
12.4407656692913378
20
0.8071499212598425
11
12.4480795669291329
21
0.8099833464566929
0
LINE
8
BLACK
6
CONTINUOUS
10
12.4480795669291329
20
0.8099833464566929
11
12.4547483070866143
21
0.8141124803149606
0
LINE
8
BLACK
6
CONTINUOUS
10
12.4547483070866143
20
0.8141124803149606
11
12.460544803149606
21
0.819396653543307
0
LINE
8
BLACK
6
CONTINUOUS
10
12.460544803149606
20
0.819396653543307
11
12.4652716141732274
21
0.8256559448818898
0
LINE
8
BLACK
6
CONTINUOUS
10
12.4652716141732274
20
0.8256559448818898
11
12.4687677952755909
21
0.8326772440944882
0
LINE
8
BLACK
6
CONTINUOUS
10
12.4687677952755909
20
0.8326772440944882
11
12.4709142913385822
21
0.8402213779527559
0
LINE
8
BLACK
6
CONTINUOUS
10
12.4709142913385822
20
0.8402213779527559
11
12.4716379921259843
21
0.8480314960629921
0
LINE
8
BLACK
6
CONTINUOUS
10
12.4716379921259843
20
0.8480314960629921
11
12.4709142913385822
21
0.8558416141732283
0
LINE
8
BLACK
6
CONTINUOUS
10
12.4709142913385822
20
0.8558416141732283
11
12.4687677952755909
21
0.863385748031496
0
LINE
8
BLACK
6
CONTINUOUS
10
12.4687677952755909
20
0.863385748031496
11
12.4652716141732274
21
0.8704070472440945
0
LINE
8
BLACK
6
CONTINUOUS
10
12.4652716141732274
20
0.8704070472440945
11
12.460544803149606
21
0.8766663385826772
0
LINE
8
BLACK
6
CONTINUOUS
10
12.460544803149606
20
0.8766663385826772
11
12.4547483070866143
21
0.8819505118110236
0
LINE
8
BLACK
6
CONTINUOUS
10
12.4547483070866143
20
0.8819505118110236
11
12.4480795669291329
21
0.8860796456692913
0
LINE
8
BLACK
6
CONTINUOUS
10
12.4480795669291329
20
0.8860796456692913
11
12.4407656692913378
21
0.8889130708661417
0
LINE
8
BLACK
6
CONTINUOUS
10
12.4407656692913378
20
0.8889130708661417
11
12.4330556299212596
21
0.8903543307086614
0
LINE
8
BLACK
6
CONTINUOUS
10
12.4330556299212596
20
0.8903543307086614
11
12.4252120866141738
21
0.8903543307086614
0
LINE
8
BLACK
6
CONTINUOUS
10
12.4252120866141738
20
0.8903543307086614
11
12.4175020472440938
21
0.8889130708661417
0
LINE
8
BLACK
6
CONTINUOUS
10
12.4175020472440938
20
0.8889130708661417
11
12.4101881496062987
21
0.8860796456692913
0
LINE
8
BLACK
6
CONTINUOUS
10
12.4101881496062987
20
0.8860796456692913
11
12.403519409448819
21
0.8819505118110236
0
LINE
8
BLACK
6
CONTINUOUS
10
12.403519409448819
20
0.8819505118110236
11
12.3977229133858273
21
0.8766663385826772
0
LINE
8
BLACK
6
CONTINUOUS
10
12.3977229133858273
20
0.8766663385826772
11
12.3929961023622042
21
0.8704070472440945
0
LINE
8
BLACK
6
CONTINUOUS
10
12.3929961023622042
20
0.8704070472440945
11
12.3894999212598425
21
0.863385748031496
0
LINE
8
BLACK
6
CONTINUOUS
10
12.3894999212598425
20
0.863385748031496
11
12.3873534251968493
21
0.8558416141732283
0
LINE
8
BLACK
6
CONTINUOUS
10
12.3873534251968493
20
0.8558416141732283
11
12.386629724409449
21
0.8480314960629921
0
LINE
8
BLACK
6
CONTINUOUS
10
12.386629724409449
20
0.8480314960629921
11
12.3873534251968493
21
0.8402213779527559
0
LINE
8
BLACK
6
CONTINUOUS
10
13.6215697244094489
20
0.8906320472440945
11
13.6291911811023621
21
0.8876794881889764
0
LINE
8
BLACK
6
CONTINUOUS
10
13.6291911811023621
20
0.8876794881889764
11
13.6361403149606293
21
0.8833767322834646
0
LINE
8
BLACK
6
CONTINUOUS
10
13.6361403149606293
20
0.8833767322834646
11
13.6421805118110235
21
0.8778703937007873
0
LINE
8
BLACK
6
CONTINUOUS
10
13.6421805118110235
20
0.8778703937007873
11
13.6471060629921261
21
0.871347874015748
0
LINE
8
BLACK
6
CONTINUOUS
10
13.6471060629921261
20
0.871347874015748
11
13.6507492519685041
21
0.8640313779527559
0
LINE
8
BLACK
6
CONTINUOUS
10
13.6507492519685041
20
0.8640313779527559
11
13.6529860236220468
21
0.85617
0
LINE
8
BLACK
6
CONTINUOUS
10
13.6529860236220468
20
0.85617
11
13.6537401574803141
21
0.8480314960629921
0
LINE
8
BLACK
6
CONTINUOUS
10
13.6537401574803141
20
0.8480314960629921
11
13.6529860236220468
21
0.8398929921259842
0
LINE
8
BLACK
6
CONTINUOUS
10
13.6529860236220468
20
0.8398929921259842
11
13.6507492519685041
21
0.8320316141732284
0
LINE
8
BLACK
6
CONTINUOUS
10
13.6507492519685041
20
0.8320316141732284
11
13.6471060629921261
21
0.8247151181102362
0
LINE
8
BLACK
6
CONTINUOUS
10
13.6471060629921261
20
0.8247151181102362
11
13.6421805118110235
21
0.8181925984251969
0
LINE
8
BLACK
6
CONTINUOUS
10
13.6421805118110235
20
0.8181925984251969
11
13.6361403149606293
21
0.8126862598425196
0
LINE
8
BLACK
6
CONTINUOUS
10
13.6361403149606293
20
0.8126862598425196
11
13.6291911811023621
21
0.8083835039370079
0
LINE
8
BLACK
6
CONTINUOUS
10
13.6291911811023621
20
0.8083835039370079
11
13.6215697244094489
21
0.8054309448818897
0
LINE
8
BLACK
6
CONTINUOUS
10
13.6215697244094489
20
0.8054309448818897
11
13.6135355118110226
21
0.8039290944881889
0
LINE
8
BLACK
6
CONTINUOUS
10
13.6135355118110226
20
0.8039290944881889
11
13.6053621259842519
21
0.8039290944881889
0
LINE
8
BLACK
6
CONTINUOUS
10
13.6053621259842519
20
0.8039290944881889
11
13.5973279133858256
21
0.8054309448818897
0
LINE
8
BLACK
6
CONTINUOUS
10
13.5973279133858256
20
0.8054309448818897
11
13.5897064566929124
21
0.8083835039370079
0
LINE
8
BLACK
6
CONTINUOUS
10
13.5897064566929124
20
0.8083835039370079
11
13.5827573228346452
21
0.8126862598425196
0
LINE
8
BLACK
6
CONTINUOUS
10
13.5827573228346452
20
0.8126862598425196
11
13.576717125984251
21
0.8181925984251969
0
LINE
8
BLACK
6
CONTINUOUS
10
13.576717125984251
20
0.8181925984251969
11
13.5717915748031501
21
0.8247151181102362
0
LINE
8
BLACK
6
CONTINUOUS
10
13.5717915748031501
20
0.8247151181102362
11
13.5681483858267722
21
0.8320316141732284
0
LINE
8
BLACK
6
CONTINUOUS
10
13.5681483858267722
20
0.8320316141732284
11
13.5659116141732277
21
0.8398929921259842
0
LINE
8
BLACK
6
CONTINUOUS
10
13.5659116141732277
20
0.8398929921259842
11
13.5651574803149604
21
0.8480314960629921
0
LINE
8
BLACK
6
CONTINUOUS
10
13.5651574803149604
20
0.8480314960629921
11
13.5659116141732277
21
0.85617
0
LINE
8
BLACK
6
CONTINUOUS
10
13.5659116141732277
20
0.85617
11
13.5681483858267722
21
0.8640313779527559
0
LINE
8
BLACK
6
CONTINUOUS
10
13.5681483858267722
20
0.8640313779527559
11
13.5717915748031501
21
0.871347874015748
0
LINE
8
BLACK
6
CONTINUOUS
10
13.5717915748031501
20
0.871347874015748
11
13.576717125984251
21
0.8778703937007873
0
LINE
8
BLACK
6
CONTINUOUS
10
13.576717125984251
20
0.8778703937007873
11
13.5827573228346452
21
0.8833767322834646
0
LINE
8
BLACK
6
CONTINUOUS
10
13.5827573228346452
20
0.8833767322834646
11
13.5897064566929124
21
0.8876794881889764
0
LINE
8
BLACK
6
CONTINUOUS
10
13.5897064566929124
20
0.8876794881889764
11
13.5973279133858256
21
0.8906320472440945
0
LINE
8
BLACK
6
CONTINUOUS
10
13.5973279133858256
20
0.8906320472440945
11
13.6053621259842519
21
0.8921338976377953
0
LINE
8
BLACK
6
CONTINUOUS
10
13.6053621259842519
20
0.8921338976377953
11
13.6135355118110226
21
0.8921338976377953
0
LINE
8
BLACK
6
CONTINUOUS
10
13.6135355118110226
20
0.8921338976377953
11
13.6215697244094489
21
0.8906320472440945
0
LINE
8
BLACK
6
CONTINUOUS
10
13.5676683858267708
20
0.8402213779527559
11
13.5698148818897639
21
0.8326772440944882
0
LINE
8
BLACK
6
CONTINUOUS
10
13.5698148818897639
20
0.8326772440944882
11
13.5733110629921256
21
0.8256559448818898
0
LINE
8
BLACK
6
CONTINUOUS
10
13.5733110629921256
20
0.8256559448818898
11
13.578037874015747
21
0.819396653543307
0
LINE
8
BLACK
6
CONTINUOUS
10
13.578037874015747
20
0.819396653543307
11
13.5838343700787405
21
0.8141124803149606
0
LINE
8
BLACK
6
CONTINUOUS
10
13.5838343700787405
20
0.8141124803149606
11
13.5905031102362202
21
0.8099833464566929
0
LINE
8
BLACK
6
CONTINUOUS
10
13.5905031102362202
20
0.8099833464566929
11
13.5978170078740153
21
0.8071499212598425
0
LINE
8
BLACK
6
CONTINUOUS
10
13.5978170078740153
20
0.8071499212598425
11
13.6055270472440935
21
0.8057086614173228
0
LINE
8
BLACK
6
CONTINUOUS
10
13.6055270472440935
20
0.8057086614173228
11
13.613370590551181
21
0.8057086614173228
0
LINE
8
BLACK
6
CONTINUOUS
10
13.613370590551181
20
0.8057086614173228
11
13.6210806299212592
21
0.8071499212598425
0
LINE
8
BLACK
6
CONTINUOUS
10
13.6210806299212592
20
0.8071499212598425
11
13.6283945275590543
21
0.8099833464566929
0
LINE
8
BLACK
6
CONTINUOUS
10
13.6283945275590543
20
0.8099833464566929
11
13.6350632677165358
21
0.8141124803149606
0
LINE
8
BLACK
6
CONTINUOUS
10
13.6350632677165358
20
0.8141124803149606
11
13.6408597637795275
21
0.819396653543307
0
LINE
8
BLACK
6
CONTINUOUS
10
13.6408597637795275
20
0.819396653543307
11
13.6455865748031488
21
0.8256559448818898
0
LINE
8
BLACK
6
CONTINUOUS
10
13.6455865748031488
20
0.8256559448818898
11
13.6490827559055123
21
0.8326772440944882
0
LINE
8
BLACK
6
CONTINUOUS
10
13.6490827559055123
20
0.8326772440944882
11
13.6512292519685037
21
0.8402213779527559
0
LINE
8
BLACK
6
CONTINUOUS
10
13.6512292519685037
20
0.8402213779527559
11
13.6519529527559058
21
0.8480314960629921
0
LINE
8
BLACK
6
CONTINUOUS
10
13.6519529527559058
20
0.8480314960629921
11
13.6512292519685037
21
0.8558416141732283
0
LINE
8
BLACK
6
CONTINUOUS
10
13.6512292519685037
20
0.8558416141732283
11
13.6490827559055123
21
0.863385748031496
0
LINE
8
BLACK
6
CONTINUOUS
10
13.6490827559055123
20
0.863385748031496
11
13.6455865748031488
21
0.8704070472440945
0
LINE
8
BLACK
6
CONTINUOUS
10
13.6455865748031488
20
0.8704070472440945
11
13.6408597637795275
21
0.8766663385826772
0
LINE
8
BLACK
6
CONTINUOUS
10
13.6408597637795275
20
0.8766663385826772
11
13.6350632677165358
21
0.8819505118110236
0
LINE
8
BLACK
6
CONTINUOUS
10
13.6350632677165358
20
0.8819505118110236
11
13.6283945275590543
21
0.8860796456692913
0
LINE
8
BLACK
6
CONTINUOUS
10
13.6283945275590543
20
0.8860796456692913
11
13.6210806299212592
21
0.8889130708661417
0
LINE
8
BLACK
6
CONTINUOUS
10
13.6210806299212592
20
0.8889130708661417
11
13.613370590551181
21
0.8903543307086614
0
LINE
8
BLACK
6
CONTINUOUS
10
13.613370590551181
20
0.8903543307086614
11
13.6055270472440935
21
0.8903543307086614
0
LINE
8
BLACK
6
CONTINUOUS
10
13.6055270472440935
20
0.8903543307086614
11
13.5978170078740153
21
0.8889130708661417
0
LINE
8
BLACK
6
CONTINUOUS
10
13.5978170078740153
20
0.8889130708661417
11
13.5905031102362202
21
0.8860796456692913
0
LINE
8
BLACK
6
CONTINUOUS
10
13.5905031102362202
20
0.8860796456692913
11
13.5838343700787405
21
0.8819505118110236
0
LINE
8
BLACK
6
CONTINUOUS
10
13.5838343700787405
20
0.8819505118110236
11
13.578037874015747
21
0.8766663385826772
0
LINE
8
BLACK
6
CONTINUOUS
10
13.578037874015747
20
0.8766663385826772
11
13.5733110629921256
21
0.8704070472440945
0
LINE
8
BLACK
6
CONTINUOUS
10
13.5733110629921256
20
0.8704070472440945
11
13.5698148818897639
21
0.863385748031496
0
LINE
8
BLACK
6
CONTINUOUS
10
13.5698148818897639
20
0.863385748031496
11
13.5676683858267708
21
0.8558416141732283
0
LINE
8
BLACK
6
CONTINUOUS
10
13.5676683858267708
20
0.8558416141732283
11
13.5669446850393705
21
0.8480314960629921
0
LINE
8
BLACK
6
CONTINUOUS
10
13.5669446850393705
20
0.8480314960629921
11
13.5676683858267708
21
0.8402213779527559
0
LINE
8
BLACK
6
CONTINUOUS
10
13.7826601181102362
20
1.1308305905511811
11
13.7831927952755908
21
1.1302979133858266
0
LINE
8
BLACK
6
CONTINUOUS
10
13.7831927952755908
20
1.1302979133858266
11
13.7832677165354323
21
1.1299212598425197
0
LINE
8
BLACK
6
CONTINUOUS
10
13.7832677165354323
20
1.1299212598425197
11
13.7832677165354323
21
-1.8657480314960631
0
LINE
8
BLACK
6
CONTINUOUS
10
13.7832677165354323
20
-1.8657480314960631
11
13.7831927952755908
21
-1.86612468503937
0
LINE
8
BLACK
6
CONTINUOUS
10
13.7831927952755908
20
-1.86612468503937
11
13.7826601181102362
21
-1.8666573622047244
0
LINE
8
BLACK
6
CONTINUOUS
10
13.7826601181102362
20
-1.8666573622047244
11
13.7822834645669285
21
-1.866732283464567
0
LINE
8
BLACK
6
CONTINUOUS
10
13.7822834645669285
20
-1.866732283464567
11
12.2822834645669285
21
-1.866732283464567
0
LINE
8
BLACK
6
CONTINUOUS
10
12.2822834645669285
20
-1.866732283464567
11
12.2819068110236209
21
-1.8666573622047244
0
LINE
8
BLACK
6
CONTINUOUS
10
12.2819068110236209
20
-1.8666573622047244
11
12.281374133858268
21
-1.86612468503937
0
LINE
8
BLACK
6
CONTINUOUS
10
12.281374133858268
20
-1.86612468503937
11
12.2812992125984248
21
-1.8657480314960631
0
LINE
8
BLACK
6
CONTINUOUS
10
12.2812992125984248
20
-1.8657480314960631
11
12.2812992125984248
21
1.1299212598425197
0
LINE
8
BLACK
6
CONTINUOUS
10
12.2812992125984248
20
1.1299212598425197
11
12.281374133858268
21
1.1302979133858266
0
LINE
8
BLACK
6
CONTINUOUS
10
12.281374133858268
20
1.1302979133858266
11
12.2819068110236209
21
1.1308305905511811
0
LINE
8
BLACK
6
CONTINUOUS
10
12.2819068110236209
20
1.1308305905511811
11
12.2822834645669285
21
1.1309055118110236
0
LINE
8
BLACK
6
CONTINUOUS
10
12.2822834645669285
20
1.1309055118110236
11
13.7822834645669285
21
1.1309055118110236
0
LINE
8
BLACK
6
CONTINUOUS
10
13.7822834645669285
20
1.1309055118110236
11
13.7826601181102362
21
1.1308305905511811
0
LINE
8
BLACK
6
CONTINUOUS
10
12.2832677165354323
20
1.1289370078740157
11
12.2832677165354323
21
-1.8647637795275591
0
LINE
8
BLACK
6
CONTINUOUS
10
12.2832677165354323
20
-1.8647637795275591
11
13.7812992125984248
21
-1.8647637795275591
0
LINE
8
BLACK
6
CONTINUOUS
10
13.7812992125984248
20
-1.8647637795275591
11
13.7812992125984248
21
1.1289370078740157
0
LINE
8
BLACK
6
CONTINUOUS
10
13.7812992125984248
20
1.1289370078740157
11
12.2832677165354323
21
1.1289370078740157
  0
ENDSEC
  0
EOF
